<svg xmlns="http://www.w3.org/2000/svg" viewBox="0 0 1683.78 2383.94"><defs><style>.a{fill:none}</style></defs><title>CHARLII_k</title><path d="M1222.65,961.78c-.91-6.58.54-12.84,1.1-19.13.42-4.86,1.93-6,6.7-6.39A87.32,87.32,0,0,1,1261,939c4.79,1.28,5.07,2.29,1.88,6.11-3.34,4-6.9,7.84-10.27,11.82-7.44,8.76-12.31,19-16.95,29.4-1.87,4.17-4.18,8.16-6.33,12.21-.5.93-1,2.23-2.27,2.06-1.67-.22-1.69-1.78-1.8-3.05-.47-5-1-10-1.28-15C1223.5,975.52,1222.35,968.6,1222.65,961.78Z"/><path d="M1157,1162.89c6.52-.08,6.74,0,8.56,6,.83,2.72,3,4.19,4.78,6.08,1.18,1.27,2.63,2.3,3.72,3.62a2.48,2.48,0,0,1,0,3.06c-.79,1.08-1.83.9-2.92.43-6-2.56-6-2.56-9.87,2.18a33.25,33.25,0,0,1-2.47,3,7.42,7.42,0,0,1-2.7,1.76c-4.31,1.43-13.08-6.07-12.4-10.54.32-2.15.88-4.26,1.14-6.41.8-6.51,3-8.67,9.57-9.18C1155.25,1162.83,1156.12,1162.89,1157,1162.89Z"/><path d="M66.7,1760.57c2.23-4.28,6-5.53,9.23-6.89,7-3,14.34-5.11,21.53-7.6,1.29-.45,2.78-.86,3.54.47,1,1.76-.48,3.09-1.79,3.64-5.89,2.43-10.46,8.12-17.78,7.11-2-.28-3.65,1.26-5.44,2C72,1761.11,72,1761.12,66.7,1760.57Z"/><path d="M159.65,1729.76c-4.73,1-8.37,2.4-12.32,2.08-.86-.08-1.83-.29-1.83-1.36a2.54,2.54,0,0,1,.87-1.63C149.75,1725.81,154.93,1725.94,159.65,1729.76Z"/><path d="M1024.6,437.68a4.83,4.83,0,0,1,2-4.55c1.44-1,3.26-1.23,4,.36,1.83,3.75,5.43,5.95,8.66,9.85-6.52-.53-10.2-5-15.18-6.22A1,1,0,0,1,1024.6,437.68Z"/><path d="M1139.2,547.81c3.57-.93,6.32.26,8.62,3.08s5.4,4.87,7.14,9.93c-7.78-2.78-12.15-7.4-15.59-13.19Z"/><path d="M1006.68,547.64c7,3.11,10.91,9.09,15.63,16.23C1014.35,561.06,1012.45,559.09,1006.68,547.64Z"/><path d="M976.16,575.31a7,7,0,0,1-2.35-1c-1.79-1.92-4.06-4.49-2.67-6.78,1.58-2.6,4.62-.9,7.48-.19-1.08,2.89-2.75,5.3-2.64,8.19Z"/><path d="M998.31,560.87c4.77,2,6.87,6.19,9.24,10.22C1002.56,569.44,1000.2,565.36,998.31,560.87Z"/><path d="M0,1808.28a8.44,8.44,0,0,0,2.4-1,52.28,52.28,0,0,1,18.3-11c2.83-1,5.17-4.27,8.24-6,5.41-3.13,11.6-3.55,17.24-5.79,1.15-.46,3,0,3.66-1.09,2.6-4.12,7-3.7,10.85-5s7.08-2,10.73,0c2,1,3.81.56,5.12-1.45,2.86-4.42,6.2-6.42,12-4.88,3.19.85,7.62-.57,10.72-2.33,5-2.84,10.93-3.21,15.7-6.4a6.48,6.48,0,0,1,4.31-.84c6.22.21,12.43.14,16.24-6.19a3.93,3.93,0,0,1,2.08-1.52c6.74-2.08,9.84-7.47,12.27-13.42.6-1.48,1.36-2.23,2.9-1.79,4.33,1.24,7.18-2.66,11.07-3.19,2.12-.29,2-2.15.72-4.08-3-4.56-2.88-5.93,2.21-7.7,11.1-3.85,22.18-8.19,34.36-7.21a12.92,12.92,0,0,1,8.69,3.93c4.73,4.75,14,4.63,18.55.13a2,2,0,0,0-1.17-3.45,23.21,23.21,0,0,0-5.89-.13c-4.23.36-8.17-.55-12.26-1.66-9.91-2.67-19.8-5.62-30.4-3.08a23.84,23.84,0,0,1-13.65-.54c-1.56-.57-3-.2-4.49-.07-5.23.44-10.53,1.12-15.68-.45-3.2-1-5.94,1.45-9.05.8-1.42-.3-3.35.52-4-1.35s.82-3.24,2.11-3.65c5.55-1.77,8.33-7.18,12.7-9.8,7.65-4.58,14.31-10.86,22.89-13.93,4.49-1.61,8.21-4.87,13.14-5.8,2-.37,4.51-2.25,3.31-5.44-.65-1.76.43-2.88,1.39-4.1a52,52,0,0,1,12.13-11c12.29-8.3,24.84-16.19,36.61-25.3,7.57-5.86,15.06-12,23.73-16.39,5.2-2.63,8.63-7.42,12.63-11.37,10.94-10.8,23.18-20,35.07-29.6,7.3-5.92,14.6-11.92,22.07-17.56,12.15-9.16,24.37-18.85,40.82-19.52,5.13-.21,9.38-3.1,13.73-5.84,5.26-3.33,9.79-7.69,15.85-10,4.4-1.69,8.31-4.89,12.09-7.86,6.5-5.13,13.26-9.86,19-16,7.31-7.75,16.94-12.26,26.95-15.74,1.66-.58,3.66-.63,4.52-2.31,3-5.77,8.81-8.42,13.2-12.64,5.58-5.37,12.6-8.54,18.91-12.78,1.77-1.18,4-2.14,5.8.4,1.6,2.26,3.23,1.6,3.66-.64a17.94,17.94,0,0,1,7.33-11.3,3.15,3.15,0,0,0,1.18-1.54c1.61-6.53,6.6-11.36,9-17.34,6-15.22,16.48-26.68,29-36.64,1-.82,2.09-1.59,3.11-2.42.82-.66,1.41-1.72,3-1.42,1.38,2.45-.36,4.39-1.47,6.38-3.09,5.55-6.36,11-9.36,16.6-5.51,10.26-6.84,21.09-4.65,32.54,3.87,20.23,13,38.09,24.33,55a198.74,198.74,0,0,1,19.66,36.39,43.07,43.07,0,0,0,7.08,11.78q6,7,11.67,14.25a61.21,61.21,0,0,0,13,11.89c7.53,5.38,16.14,8.71,23.88,13.72,6.36,4.12,14.17,4.46,21.66,4.43,5.51,0,7.41-3,5.95-8.23a8.34,8.34,0,0,0-1-2.43c-3-4.65-2.56-9,.59-13.46.87-1.21,2-2.92,1.75-4.14-1.37-6.53,1.6-12.51,2.18-18.78.66-7.12,1.78-14.31,3.08-21.31.94-5.08,2.46-11.21,8.15-14.33,1.26-.7,2-2.31,3.11-3.36,3.13-3,5.23-5.78,1.53-10a5.11,5.11,0,0,1,.27-7.22c2.11-2.19,4.72-2.1,7.33-1.08,2.89,1.13,5.24,3.19,7.82,4.85,3.31,2.14,5.29,1.11,5.74-2.78a5.75,5.75,0,0,0-.66-3.82c-2.7-4.26-2.35-8.68-1.18-13.33,1.72-6.88,1.55-6.85-4.82-10.58a31.35,31.35,0,0,1-5.82-4.27c-4-3.86-4.34-8.56-.48-12.64,2.67-2.83,3.33-6,3.37-9.62,0-3.42.6-6.8,3.94-8.51,5.24-2.69,5.09-7.24,3.22-11.27-2.37-5.11-.68-10.44-2.1-15.51-.66-2.37,1.32-3.54,3.43-4a14.18,14.18,0,0,1,10.22,1.3,12.58,12.58,0,0,0,8.8,1.84c2.86-.53,5,1.23,7.29,2.5,10.35,5.71,20.69,11.42,31.11,17,7.58,4.06,15.48,7.17,24.34,6.86,2.08-.08,3.73,1.19,5.34,2.34a84,84,0,0,1,6.83,5.14,13.51,13.51,0,0,0,9,3.55c2,.07,4.3-.06,5.78.93,6.38,4.3,13.8,6.45,20.42,10.21,4.76,2.71,9.66,5.17,14.39,7.94,10.62,6.23,21.62,11.45,33.73,14.13a22.91,22.91,0,0,1,6.59,3,19.79,19.79,0,0,0,11.22,3.16c2-.08,3.74,1,5.59,1.72,3.7,1.35,5.89-.26,5.93-4.27,0-1.53-.69-3.26.72-4.31,3.72-2.77,4.87-7.17,7.28-10.76,2.09-3.11,4.29-6.15,5.59-9.64a7.79,7.79,0,0,1,7.32-5.56,11.82,11.82,0,0,0,9.28-5.51,6.85,6.85,0,0,1,6-3.34c3.44,0,5.05-2.11,5.77-5.23.83-3.64.37-5-3.37-5.51-3.93-.56-5.63-2.64-6.68-6.14-1.62-5.41-2.31-10.54.52-15.89,2.34-4.41,1.5-6.7-2.66-9.39-1.86-1.21-3.84-2.22-4.78-4.34-1.4-3.12-4.28-4.32-7.08-5.55-5.44-2.37-8.42-1.76-12,3.09a40.5,40.5,0,0,1-9.91,9.51c-5.15,3.48-10.69,5-16.86,3.35a17.91,17.91,0,0,0-2.55-.63,27.48,27.48,0,0,1-19.55-10.8,18.69,18.69,0,0,0-3.9-3.51c-5-3.6-7.67-8.18-7-14.6a20.82,20.82,0,0,0-1.76-9.64c-3.25-8.3-.87-15.34,5.67-20.58,4.31-3.45,6.74-8,9.44-12.39,2.17-3.52,4-7.31,6.52-10.62,2.1-2.69,2.68-5.93,3.5-9.13,1.4-5.48,2.42-11.29,8.83-13.61a4.48,4.48,0,0,0,1.89-1.78c3.91-5.83,10-5.55,15.91-5.72,2.46-.08,4,1.27,5,3.56s2.55,2.45,4.11.81c4.21-4.44,8.11-3,12.15.24a29.24,29.24,0,0,0,9.28,4.83c3.53,1.17,6.92,2.75,9.35,5.86.77,1,2,2.15,3.11,2.27,6.64.68,13.1,3.23,20,.52,8.72-3.4,17.77-6,26.68-8.9,2-.63,3.93-.26,5.89-.16a21.32,21.32,0,0,0,10.9-1.88c3.89-2,5.2-4.1,3.3-7.88a56.45,56.45,0,0,0-8.49-13.07c-3.16-3.44-8.1-4.54-12.81-4-7.5.84-14.89,1-22.21-1.1-2.45-.69-4.71.07-7.08.64-5.44,1.31-8.36-.62-9.4-6.14-.45-2.4-.75-4.75-2.37-6.72a3.7,3.7,0,0,1-.48-4.32c1.79-3.37.16-5.73-2-8.21a45.9,45.9,0,0,1-9.79-19.14c-.73-2.87-1.74-5.44-4.21-7.2s-3.34-3.86-2-6.81a5.84,5.84,0,0,0,.54-3.82c-2.23-6.41-4.4-12.87-7.22-19-1.6-3.48-6.55-4-9.79-1.66a14.51,14.51,0,0,0-2.27,2.36c-4.47,5.1-6.31,5.78-8.93,3.29-4.71-4.47-5.85-10.84-2.6-14.61.43-.5.85-1.16,1.41-1.36,7.73-2.86,8.17-10.13,9.89-16.52,1.13-4.21,1.5-8.55,3-12.75,2-5.45-1.64-8.94-7.43-8.53-28.9,2-57.1-.75-83.21-14.43-19.06-10-32.73-25.07-42-44.74a161.61,161.61,0,0,1-15-58.27c-.45-6.66-4.08-12-6-18-1-3-4-3.93-7.06-3.78a15.93,15.93,0,0,1-11-3.64c-1-.8-2.18-1.8-3.38-2-8.44-1.07-12.76-7.91-18.4-12.9a4.9,4.9,0,0,1-1.38-4.86c.61-3,1.41-6,2.14-8.95a3.69,3.69,0,0,1,3.66-3.18c3.23-.11,3.54-1.87,2.6-4.42a2.72,2.72,0,0,1-.3-1.27c.8-5.48-1.42-8.19-7.07-8.12a3.92,3.92,0,0,1-3.33-1.92c-3-5.14-8.34-6.19-13.32-7.64-4.19-1.23-8.6-1.74-12.9-2.6a6.75,6.75,0,0,0-4.49.43c-2.55,1.25-3,3.38-.66,5.09a44.5,44.5,0,0,0,9.08,5.26c6.27,2.64,12.53,5.26,19.21,6.74a4.3,4.3,0,0,1,2.85,1.49c-2.93,1.73-4.49,2-8.6.16-4.44-2-9.14-3.09-13.74-4.52-3.34-1-6.77,1.36-7.48,5.29-.35,2-1.58,1.85-2.77,1.93a37.24,37.24,0,0,1-4.6-.18c-1.3-.09-2.63-.48-3.91.7-.65,2.39,2.55,3.32,2.45,5.63,0,1.06.58,2.22-.27,3.13-1.09,1.17-2.42.54-3.68.22-2.14-.54-3.3-2.61-5.38-4-.91,4.36,1.15,7.91.66,11.64-7.4-.18-11.32,4-13.47,10.22A29.59,29.59,0,0,1,660,989.61a10.44,10.44,0,0,0-2.5,6.62c-.44,6.82-1.12,13.57-5.35,19.38-1.17,1.62-1.14,3.73-1.52,5.68-1.61,8.41-3.34,16.77-7.93,24.25-2.65,4.32-2.94,9.27-1.8,14.06,1.58,6.64-2.32,12.39-2.53,18.72-.06,1.76-2,2.31-3.61,2-7-1.51-11.38,1.62-14.18,7.74-.68,1.48-2.27,2-3.32,3.1-3.5,3.59-7,7.05-7.5,12.66-.35,4.28-2.52,6-5.68,5.9-3.67-.12-6-2.15-5.72-6.49.42-7.47-3.72-13.4-5.86-20a7.13,7.13,0,0,0-2-2.59c-1.54-1.48-3.2-1-3.46.86-.79,5.59-3.29,10.93-2.49,16.77a24.42,24.42,0,0,1,.4,5.89c-1.22,10.94,3.72,19.9,8.76,28.94,1.77,3.17,6.84,6.08,1.84,10.61-.22.2.49,1.54.9,2.29,1.23,2.28,2.52,4.53,3.88,7-2.24,1.58-3.51,0-4.74-.93-1.54-1.21-2.86-2.71-4.37-4-.7-.59-2.15-.73-2.29.12-.76,4.55-5.52,6.77-6.33,11.18-1,5.16-2.47,10.24-2.2,15.57.5,10.08.86,20.15.61,30.26-.44,18,1.09,36,2,53.93a126,126,0,0,1-.88,23.63c-.4,3-1.11,5.85-4.42,6.64-2.76.67-4.39-1.39-5.83-3.41a12.22,12.22,0,0,0-1.19-1.57c-.81-.8-1.82-1.44-2.91-.73s-1,1.83-.76,2.95c.76,3.2,1.42,6.42,2.33,9.58a13.42,13.42,0,0,1,.35,7.09,10,10,0,0,0,2.8,9.68c4.85,4.94,7.85,10.45,5.86,17.74-.5,1.84-.12,3.93-.21,5.9,0,1.12-.32,2.3-1.54,2.63a2.43,2.43,0,0,1-2.69-1.46c-3.23-5.6-9.66-6.58-14.41-10-2.29-1.65-3.6-.67-3.8,2.1,0,.22,0,.44,0,.66-.29,7.84-1.75,8.91-9,6.29-2.43-.88-5-1.33-7-3.43-1.56-1.68-3.21-.94-4.39.76-1.35,2-.74,3.27,1.48,3.92,1.29.39,2.7.83,2.71,2.42,0,2.19-2.21,2.53-3.55,3.49s-2.58,0-3.39-1.06c-2.35-3.13-5.33-5.93-5.61-10.2-.11-1.8-.48-3.77-1.9-4.78-3.45-2.47-4-6.67-6.24-9.66-4-5.37-4.21-11.42-5.1-17.38-.7-4.64-1.76-9-4.34-13-2.36-3.64-4.07-7.11-3.07-12.1.85-4.28-.5-9.13-1.43-13.61a152.26,152.26,0,0,1-2.56-25.45,29.18,29.18,0,0,0-1.77-9c-.81-2.27-2-4.39-1.92-6.92,0-.84-.08-2.14-.6-2.47-7.22-4.65-4.11-13.33-7.58-19.55-1.52-2.72-2.22-6.44-4.42-8.59-4.76-4.63-5.49-12.11-11.55-15.65-.86-7.35-5.63-13.44-6.67-20.72-.21-1.47.24-3-.4-4.51-1.84-4.32-3.58-4.64-6.52-.89-1,1.26-1.75,2.61-3.66,1.86-2.16-.84-4.29-2-3.72-4.68.76-3.56-.27-7-.11-10.46.11-2.31-.05-4.32-1.43-6.21a3.89,3.89,0,0,1-.44-4.36c1.56-2.73.52-5-.88-7.36-4-6.78-6.59-14.23-10.87-20.88-4-6.21-4.71-13.65-6.34-20.66-1.23-5.27-3.19-10.32-6.48-14.25-4.86-5.81-6.7-12.74-9.27-19.44-1-2.45-2.16-4.73-3.21-7.09a108.41,108.41,0,0,1-6.12-17.18c-2.07-8.06-4.53-16-6.59-24.06A52.32,52.32,0,0,0,388,968.86c-.31-.3-.78-.64-.82-1-.79-7.21-6.85-12.11-8.3-19a12.69,12.69,0,0,0-2.36-5.38,10,10,0,0,1-2.39-4.63c-1.21-8.58-3-17-4.81-25.49-1.9-9-2.74-18-6.12-26.74-2.51-6.49-4.48-13.83-2.94-21.25.47-2.22,0-4.34-.49-6.5-.49-2.36-1.45-4.89-1-7.11.84-4.16.19-7.24-3.47-9.68-1.9-1.26-1.62-3.4-1.32-5.42.76-5.11-.19-9.92-1.91-14.81-3.18-9.06-4.16-18.39-1.28-27.78a31.72,31.72,0,0,0,1.11-12.36,16.18,16.18,0,0,1,.38-6.53c1-3.15.91-6-1.89-8.35a5.23,5.23,0,0,1-1.53-4.85c.7-5.16,0-10.43,2.14-15.53,1.42-3.34,1.39-7.29,2-11,.31-1.94.1-4.15,1-5.78,2.37-4.47,1.56-9,.82-13.49-.42-2.57-.76-5.17-3.92-6.25-2-.69-1.94-2.63-1.55-5.14,3.74,2.32,6.72,1.21,9.09-1.74,1.46-1.84,1.16-10.25-.38-12.11-1.31-1.61-2.65-1.23-3.74.33-1.21,1.74-.91,4.32-4.37,6.6,2.12-5.45.09-11,6.51-13.07,1.34-.42.82-2,.31-2.86-4.22-7.17-2.72-14.24-.07-21.47,1.58-4.33,2.53-8.77.95-13.51-1.32-4,1.35-7.4,3.08-10.43,4.89-8.58,11.15-16.34,14.76-25.71,2.82-7.3,8.76-13.15,10.1-21.22a7.06,7.06,0,0,1,1.91-3.41c6.09-6.5,9.39-14.77,13.56-22.37,3.63-6.64,7.75-12.89,11.55-19.32A90.27,90.27,0,0,1,429.51,524c3-2.82,4.27-6,1.72-10.76,3.83.78,5.8.15,6.11-3.75.36-4.52,2.15-8.6,8-8.46,1.88,0,2.5-1.19,2.95-2.89,1.39-5.23,4.68-8.45,10-10a19.49,19.49,0,0,0,10.52-7.48,4,4,0,0,1,4.36-2c5.51.77,9.07-1.61,10.71-6.77,1.72-5.44,1.72-5.44,7.31-5.92,6.39-.54,9.58-4.13,8.21-10.53A7.09,7.09,0,0,1,502,448a75.41,75.41,0,0,1,21.6-13.56c4.54-1.85,9.85-2.46,14.67-2.62,6.39-.22,11-4,16.47-5.87,1.72-.59,3.1-1.64,4.79-.37,5.27,4,11.55,1.24,17.23,2.6a2.63,2.63,0,0,0,3-2.8c0-1.53-1.36-2.1-2.64-2.55-1.78-.64-3.93.4-6-1.65,5.93-1.7,11.12-4.41,17.17-4,2.82.21,5.58.47,8.07-1.74,1.68-1.49,4.21-1.2,6.37-.93,4.32.55,8.34,0,11.85-2.7,4-3.06,8-4.4,12.18-1.11,2.2-.9.7-3,1.53-3.57,3.24-2.28,7.06-3.95,7.1-8.78,6.46-4.55,6.79-11.29,6.6-18.25a19.81,19.81,0,0,1,.21-3.93,3.11,3.11,0,0,1,3.2-2.76c2,0,2.43,1.55,2.65,3.14.13.87.12,1.75.21,2.63.61,5.8,1.27,6.7,6.26,4.59,4-1.67,8.26-3.58,10.74-7.68,1.74-2.87,3.26-5.67,1.7-9.22-1-2.22.17-3.52,2.46-3.19,3,.44,4.62-.6,5-3.61a4.43,4.43,0,0,1,3.72-4.11c2.53-.29,2.57,2.52,3.63,4,.61.85.64,2.11,2.23,2.79a28.87,28.87,0,0,0,8.58-8.38,15.78,15.78,0,0,1,2.15-3.27c1.39-1.35,3.5-2.18,3.93-4.27.52-2.57-2.24-2.91-3.35-4.39-.9-1.19-.41-2.13.88-2.49a4.47,4.47,0,0,1,2.56,0c3.61,1.3,5.53.29,6.89-3.5,1.56-4.38,5.29-7,9.81-8a188.89,188.89,0,0,0,29.67-8.6c1-.38,2.43-1.19,3.09-.25,2.16,3.09,5.69,3.58,8.77,5.69-2.52.16-5.09.75-7.53.41-14.07-2-25.15,3.77-34.79,13.23-2.36,2.32-4.57,4.69-7.78,5.85-3.63,1.3-3.18,5.4-5.23,7.81a1.29,1.29,0,0,0,.27,1.2c3.4,1.69,5.93,5.36,10.31,4.81,5-.64,8.79.87,11.44,5.43,2.33,4,5.76,5.48,10,3.41s8.22-.11,12.25-1c1.28-.28,2.46.8,2.88,2.22,1.08,3.63,2.51,3.14,4,.32a3.16,3.16,0,0,1,3.21-1.82c4.85.39,9.79-1.88,14.17-1.2,5.91.92,9.7-.91,14.36-3.88,5-3.19,9.61-6.84,14.45-10.18,3.38-2.33,6.47-3.46,10.36-2.51a14,14,0,0,0,2.54.66c2.67.1,5.62,0,7.25-2.22s-1.43-3.71-2.14-5.63a9.77,9.77,0,0,0-7.07-6.25,30.35,30.35,0,0,1-5.14-2.55c.77-2.54,2.51-1.91,3.89-1.71a168.79,168.79,0,0,1,26.85,5.89c1.45.46,2.79,1.37,4.41.92,9.52-2.61,19.45-2.69,29.06-4.66,4.49-.91,8.78-3.11,13.5-2.34,2,.33,6.06-1.26,4.46,3.76-.28.88,1.09,1.15,1.94,1.28a7.55,7.55,0,0,0,5.71-.89c.71-.48,1.17-1.39,1.92-1.74,2-1,4.64,1.77,6.59-1.37,1.34-2.14,4.12-2.25,6.6-2.21,2.63,0,5.27,0,7.9,0,1.94,0,3.19,1,4.28,2.61,1.77,2.54,3.94,3,6.81,1.4,4.05-2.27,8-1.6,11.66,1.19.87.66,1.74,1.79,2.65,1.85,8.9.51,15.9,7.36,24.95,7.39,2.14,0,4.36.16,4.52,3.46.11,2.16,2.22,2.55,4.08,2.22,3.27-.57,6.07.76,8.82,2.08,4.13,2,7.95,4.68,13,3.86,2-.32,3.07,1.42,4.1,2.87,3.22,4.51,7.89,6.29,13.14,6.25,5.81,0,10.65,3.55,16.39,3.85,2.32.13,3.31,2.72,3.87,4.89,1,4,2.8,6.94,7.66,6.27a3.14,3.14,0,0,1,2.89,1.28,3.49,3.49,0,0,1,.74,3.09c-.35,1.42-1.48,1.32-2.61,1.16-.87-.12-1.76-.19-2.08.95a2.5,2.5,0,0,0,2.17,2.16c7.74,1.93,14.56,5.42,21.3,9.86,8.74,5.76,18.49,10,27.84,14.8,3.93,2,7.49,4.29,10.34,7.9,2.73,3.45,6.36,6,11.32,5.18,2.79-.47,5.21.92,5.81,3.27,1.57,6.11,6.68,7.91,11.39,10,3,1.3,5.2,2.72,6.84,5.63a18.25,18.25,0,0,0,8.77,7.62,20,20,0,0,1,9.28,8.05c1.32,2.21,1,3.94-.4,6,11.16.19,16.42,7.74,20.92,16.06.71,1.32,1.07,2.17,2.65,2.15a2,2,0,0,1,1.9,1.59c1.06,3.76,2.16,6.87,7.11,3.72,1.37-.88,3.27,1.22,2.72,2.68-1.52,4.07,1.18,5.64,3.37,8.17,2.73,3.15,5.16,6.37,8.93,8.41a5.09,5.09,0,0,1,2.39,4.5c.1,7.18,4.73,11.69,9.68,15.6,8.66,6.85,15.35,15.37,21.77,24.14a29.11,29.11,0,0,1,4.14,9.62c1,3.75,2.35,7.15,7,8.61a8.7,8.7,0,0,1,6,7.92,7.71,7.71,0,0,0,1.08,3.72c6.31,9.45,9.89,20.26,15.23,30.19,3.34,6.22,4.63,13.21,7.29,19.72,5.06,12.38,9.67,25,14.22,37.53,2.31,6.38,4.65,12.85,6,19.49,1.93,9.81,4.31,19.57,4.89,29.62a4.71,4.71,0,0,0,1,3c3.75,3.34,3.22,7.85,3.85,12.15,1.47,10.17,3.1,20.32,5.55,30.31,1.56,6.4,4,12.47,6.33,18.61.45,1.22,1.37,2.45.34,3.68-4.72,5.62-2.07,11.87-1.42,17.86a29.6,29.6,0,0,1,.38,7,74.77,74.77,0,0,0,.11,15c.52,5.66.48,11.41,2.19,16.93a6.68,6.68,0,0,1,0,4.54c-3.83,9.44-3.35,19.69-5.56,29.43s-4.19,19.36-11.36,26.88c-2.16,2.26-3.54,5-5,7.69-1.93,3.4-3.24,7.08-5.93,10.15-2.29,2.6-1.65,4.66,1.29,6.52,2.13,1.35,4.66,2.13,6.73,4.88-3.7.29-6.63-2.19-9.6-.36.34,2.1,2.16,2.08,3.45,2.65,14.32,6.3,28.94,11.48,44.68,13,6.28.62,7.52,2.51,6.63,8.77a68.41,68.41,0,0,1-2.55,10.19c-.9,3-3.26,4.59-6.07,5.58-9.18,3.21-15.55,9.46-20.06,18-3.82,7.19-6.88,14.71-10.18,22.12-10.93,24.55-25.22,46.8-45.66,64.49-9.9,8.57-20.26,16.84-32.91,21.51,2.2-3.77,2.25-3.68,6.34-6.41,7.46-5,15.54-9,22.31-15.07a83,83,0,0,0,12.21-13.69c2.85-4,6.92-7.31,6.9-13,0-1.26,1.4-2.76,2.51-3.75,4.33-3.9,6.52-9.29,9.94-13.82a8.15,8.15,0,0,0,2-4.82c0-3.74,1-6.85,4.22-9.11a4.9,4.9,0,0,0,1.56-2.8c2.39-10.42,5.08-20.79,6.15-31.46.34-3.37,1.21-7.15-3.82-8.32-1.33-.3-1.55-2-1.58-3.36-.07-3.29-.2-6.56.71-9.81,1.41-5.08-.24-9.21-3.51-13.33-7.45-9.37-17.63-13.61-28.75-16-21.26-4.53-42.78-4.48-64.15-1.33A123.91,123.91,0,0,0,1169.78,946c-6.33,2.92-13.15,5-18.24,10.21a20.45,20.45,0,0,0-1.61,2c-.07.09.1.37.3,1.05,3.24-1.83,6.45-3.52,9.55-5.41,11.75-7.15,24.71-11.18,37.87-14.67a26.19,26.19,0,0,1,7.2-.48,6.94,6.94,0,0,1,7,5c.91,2.72,1.75,5.56,4.26,7.24,4.9,3.27,2.41,8.17,2.21,12.09-.17,3.3-4.81,4.11-7.48,4-6.35-.34-7.79,4.93-10.12,8.42-2,2.93-3.63,5.88-6.43,8.08-1.71,1.36-3.57,2.55-4.69,4.55-.41.75-1,1.81-1.68,1.92-5.6.94-9.71,5.9-15.76,5.73a17.27,17.27,0,0,0-5.8,1c-4.77,1.56-9.44,1.8-14.15-.15-1-.41-2.1-.68-2.9.53,0,2,1.84,2.24,3,3.14a8,8,0,0,1,2.84,7.65c-.42,3.55-2.82,5.49-6,3.84-6-3.17-11.06-1.78-16.73,1.07-5.51,2.77-11.18-1.51-11.27-7.67-.06-4.47,1.65-8.59,2.6-12.86.32-1.43,1.28-2.75.87-4.8a10.59,10.59,0,0,0-4.44,6.69q-3.51,13-6.78,26.07c-1.27,5.06,1.36,9.9,1,15-.23,3.46.43,7-.4,10.47a9.49,9.49,0,0,0,.18,5.2c2.29,7.1,4.25,14.33,7,21.26,6.65,17,18.4,29.09,36.65,32.68,9.7,1.91,19.55,5.13,29.83,2.83a34.05,34.05,0,0,1,9.2-.3c8.42.46,16.65-.19,24.59-3.27.59-.23,1.3-.2,2.06.78-2.25,2.57-5.54,3.24-8.56,4.18a107.45,107.45,0,0,1-26.46,5c-9.65.49-19.31.76-28.9-.89-13.64-2.36-25.28-8.34-34.71-18.63-18.15-19.8-28-43.2-31-69.73-.22-2-.54-3.92-.69-5.89-.38-4.8-.71-9.53,1.32-14.23,1.7-3.93,1.17-4.5-3.08-5.86-1.05-.34-2.33-.45-2.89-1.38-2.73-4.57-7.38-4.43-11.66-4.6-8.51-.35-17-1.53-25.51,1.05-9.55,2.92-15,10.67-13.3,20.51a29,29,0,0,1-.7,13.59c-1.25,4.31-1,4.38,3.61,5.17,3,.52,3.74,1.77,2.6,4.42-1.41,3.29-4,4.83-7.8,4.68-4.7-.18-8.12,3.91-6.2,8.32,1.69,3.87.73,7-1.19,9.9-4.09,6.22-7.64,12.8-12.39,18.61a111.21,111.21,0,0,0-11,16.29c-2.11,3.79-2.76,3.88-5.31.59-3.44-4.45-4.28-4.71-8.19-1a152.58,152.58,0,0,1-22.65,17.95c-3.77,2.42-6,5.84-5.11,10.56.55,3-.31,5.63-1.62,8.23a48.23,48.23,0,0,0-5.52,20c-.38,9.18-1.48,18.34-1.55,27.56-.06,7.66,2.81,14.13,7.4,20,4.4,5.6,11.82,8.12,18.58,3.06a16.86,16.86,0,0,1,5.31-2.52c20.43-5.93,40.31-4.62,59.51,4.83,3.75,1.85,5.61,4.31,4.73,8.91s.12,5.7,4.55,7.23c1,.36,2.11.6,3.16.93,8.87,2.75,11.31,1.75,14.79-6.56a15,15,0,0,1,4.81-6.09c2.89-2.3,6.22-4,8.49-7.18,1.81-2.53,4.63-2.25,7.2-1.15,3,1.31,5.91,3,7.75,5.9,1.34,2.09,2.71,3.15,5.39,2.17,2.3-.83,3.53.89,3.1,2.86-1.51,6.82-2.28,14.25-6.83,19.68-12,14.26-23.11,29.28-36.66,42.17-2.38,2.27-5,4.27-7.42,6.51s-4.13,4.8-2.93,8.15c1.14,3.2,4.1,3.8,7.06,3.71,6.56-.19,13.19.84,19.64-1.11a8.25,8.25,0,0,1,5.17.27,9.47,9.47,0,0,0,6.45.14c1.27-.45,2.84-1,3.64.3,2.53,4,4.57,1.84,6.7-.29a2.93,2.93,0,0,1,.46-.47c8.38-5.46,17.47-9.92,24.51-17.3a4.56,4.56,0,0,1,1.77-.85c4.16-1.45,9-3.56,12.37.06,3.73,4,6.31,9.6,3.73,15.18-4.76,10.28-6.51,21.94-14.31,30.85-2,2.32-2.88,5.54-3.16,8.56-.45,4.74-3.07,7.67-7,9.66-4.89,2.5-9.78,4.94-13.91,8.64-1,.93-2.34,1.61-3.54.63-1.63-1.33-.56-2.8.34-4,1.83-2.53,3.78-4.92,7.4-4.68a3.85,3.85,0,0,0,3.79-2.11c2.59-4.39,1.26-13.65-2.17-17.81a26.22,26.22,0,0,0-12.62-8.92c-5-1.61-8.47-.23-11.66,3.34q-3.74,4.17-7.56,8.24c-.9,1-1.86,2.31-3,2.5-4.87.87-7.1,4.92-10.09,8-2.53,2.61-1.87,4.72,1.63,5.67a49.43,49.43,0,0,0,5.21.67c1.12.17,2.55.7,2.29,1.9-1,4.52,2.41,3.56,4.69,4,.86.17,1.75.22,2.61.35,5.46.84,5.11,1.23,2.88,6.54-2.31,5.5-7,9.47-8.71,15.28a7.86,7.86,0,0,1-2.65,3.7c-5.59,4.41-9.07,10.64-13.89,15.72-4,4.27-7.5,9-8.17,15.37-1.18,11.1,2,17.62,12,23,3.68,2,7.28,4.06,10.94,6.06,3.89,2.11,5.59,2.11,7.82-1.4,5-7.92,11.76-14.74,15.08-23.81,1.84-5,5-6,10-3.59,6.49,3.17,12.78,6.77,19.18,10.11a60.64,60.64,0,0,0,12.86,5,20.61,20.61,0,0,1,11.94,7.68,14,14,0,0,0,7.51,4.95c8.61,2.74,16.89,6,23,13.29,3.43,4.08,9,4.82,13.37,3.83,7.56-1.72,13.35.79,18.84,5,2.62,2,4.84,3.68,8.23,2.23a4.13,4.13,0,0,1,3.84.18c5.67,3.69,12.31,2.75,18.48,4,4.08.83,8.24,1.24,12.31,2.09,3,.62,5.83,2,8.16-1.58,1-1.56,3-.74,4,.43,3.57,3.89,7.94,3.75,12.73,3.37,6.58-.52,13.11.93,19.66,1.59,5.89.6,11.75,1.48,17.6,2.44,3.61.59,7.14,1.61,9.9,5.2-3.77,0-7.55-.07-11.32,0-1.44,0-3.43-.55-4.09,1.25s.66,3.43,1.87,4.63c3,3,6.19,6,6.87,10.21.93,5.71,3.48,10.81,5.08,16.26.72,2.45,1.61,5,4.46,5,3.26,0,5.76-2.12,7.45-4.79s1-5.05-1.08-7.19a25.25,25.25,0,0,1-2.78-2.79c-1.67-2.34-1.22-4,1.35-5.2,1-.47,2.15-.54,3.12-1,1.67-.83,2-3.62,4.59-3.18,2.29.39,3.77,2.15,5.59,3.33,7.59,4.93,13.42,11.91,20.41,17.55,1.8,1.45,2.57,4.13,4.28,5.76,7.44,7.06,13.81,15.1,20.93,22.44,2.43,2.5,4.48,5.36,6.68,8.08,4.87,6,11.48,10.12,17,15.41,1.59,1.51,3.57,2.87,4.52,4.73,4.19,8.14,11,14.06,16.72,21a62.89,62.89,0,0,1,10.57,17.9c2.5,6.72,8.16,11.34,12,17.17a3.64,3.64,0,0,0,2.78,1.49c4.54-.63,5.82,2.7,7.8,5.62,3.65,5.38,6.2,11.7,12.45,15a7.36,7.36,0,0,1,2.43,3c8.83,15.85,19.09,30.86,26.51,47.56s16.67,32.9,23.81,49.86c5.14,12.19,12.51,23.13,17.61,35.23,5,11.94,12.23,22.72,17.81,34.36,3.73,7.78,5.62,16.15,8.85,24.06.74,1.83,1.22,3.75,2.47,5.35,6.42,8.23,9.66,18.11,14.28,27.29,6.08,12.06,10.19,25.18,19,35.84a39,39,0,0,1,4.81,8.59c6.61,14.32,13.25,28.61,21.81,41.92,5.05,7.86,5.89,16.68,3.89,25.38-2.69,11.71-4.76,23.6-10.27,34.61a86.85,86.85,0,0,1-13.16,18.75c-12,13.59-26.38,24.23-41.59,34a396.68,396.68,0,0,0-42.85,31.56c-8.33,7.11-16.72,14.23-25.59,20.65-9.58,6.93-19.24,13.75-28.84,20.66-7.72,5.56-8.79,13.1-7,21.53a37.8,37.8,0,0,1,1.23,7.76c0,7.45-.24,14.91,1.08,22.32a17.74,17.74,0,0,1-.14,5.9c-.56,3.43-1.79,3.8-4.8,1.88-6.17-3.93-12.58-7.12-20.24-6.43a8.13,8.13,0,0,1-3.26-.32c-11.9-4.07-21.59,1.76-31.4,7-1.54.82-2.89,2.22-4.51,2.64-7.13,1.82-12.79,6.89-19.56,9.07-6.44,2.06-10.72,6.36-15.66,10.28-3.91,3.09-6,7.53-9.41,10.89-1.31,1.29-1,3.23-.86,5,.76,9.39,1.43,18.79,2.13,28.19a49.43,49.43,0,0,0,2.75,13.49,15.93,15.93,0,0,1-.38,12.82,15.51,15.51,0,0,0-1.14,10.24,67.26,67.26,0,0,1,1.36,15.05,13.88,13.88,0,0,0,3,9.16c4.23,5.46,6,11.2,1.17,17.34-1.15,1.47-1,3.29.63,3.94,8.55,3.37,8.92,11.54,10.32,18.54,1.27,6.31,4.1,11.43,7.7,16.43a34.52,34.52,0,0,1,2.17,4H0V1959.77c2.79-1,5.34-2.58,5.28-5.69-.06-2.91-2.72-4.09-5.28-4.85ZM829.7,621.76c-.41-5.36-3.48-9-7.8-12.2-.13,8.46-.1,8.51,7.94,12,0,1.75.16,3.51.13,5.26,0,1.49,0,4.36-.7,4.16-2.3-.68-4.32,2-6.86-.13a23.11,23.11,0,0,0,3.52,8.78,35.42,35.42,0,0,1,5.25,14.67c.88,7.72,6.08,11.93,9.94,17.77,1.36-2.21,1.4-3.89.6-5.59a33.26,33.26,0,0,1-3-9.33c-.48-3.24-1.58-6.41-1.89-9.66-.34-3.56-3.78-7.43-2.38-9.91,2.59-4.59-2.37-5-2.72-7.6a12.43,12.43,0,0,1,.3-3.24A4.69,4.69,0,0,0,829.7,621.76Zm237.53-101.87c-8.84-9.89-11.9-12.43-16.11-12.67,5.08,4.61,8.94,10.72,16.29,12.52a9.11,9.11,0,0,0,5.33,7.08c7.28,3.12,8,13.22,16.41,14.87.42.09.8,1,1,1.64.69,2.61,2.85,3.77,4.84,5.11a36,36,0,0,1,10,9.29,9.05,9.05,0,0,0,2.85,2.66c5,2.87,9,7,12.84,11.14,4.33,4.68,9.65,8.08,14.89,12.11a3.45,3.45,0,0,0-1.16-3.51c-4.2-4.36-6.94-9.69-13.1-12.72-5.47-2.69-11.38-6.8-13.15-13.91-.14-.56-.77-1-1.25-1.48C1094.17,540.72,1081.83,528.91,1067.23,519.89Zm-92.57,54.27c3.51,1.23,5.53,4.19,7.9,6.76,1.41,1.54,2.59,3.45,5.09,3.41.54-2.22-1.07-3-1.91-4.21s-2-2.75-.7-4.12c1.55-1.66,2.88,0,3.87,1a94.56,94.56,0,0,1,13.36,16.77c3.37,5.47,7.73,10,12.13,14.56.9.94,2.27,1.51,3.51.38.88-.81,1.31-2.16.46-3-3.36-3.12-3.73-7.86-6.45-11.32-4.32-5.52-8.82-11-12.56-16.85-2.34-3.71-6.7-6.38-6.91-12.73,5,5.42,9.76,9.68,13,15.11,5.19,8.78,13.46,15,18.8,23.62a1.72,1.72,0,0,0,1,.83c4.53.64,6.12,4.46,8.35,7.61.8,1.13,1.78,1.93,3.73.8-1.69-4.44-5.33-7.29-8.73-10.19-4.29-3.67-5.7-8.72-8.13-13.91a6.44,6.44,0,0,1,5.17,3.75c.71,1.32,1.54,3.09,2.74,3.56,4.31,1.68,6.27,5.45,8.2,9a38.51,38.51,0,0,0,7.93,10.31,43.73,43.73,0,0,1,9.39,11.72c1.18,2.24,3.15,4.06,5,6.3,1.45-2.82-2.38-5.27.25-7.5,2.42.12,2.76,3.53,5.72,3.12-.55-4.64-4-8.94-1.46-13.78.2-.36-.33-1.26-.71-1.77-6.31-8.59-10.29-18.86-18.72-25.94a7.36,7.36,0,0,1-1.76-2.7c-3.36-7.46-7.31-14.43-14.42-19.07-2.11-1.37-3.49-3.08-.35-4.94s1.52-3.32-.54-4.11c-1.8-.69-4-.43-4.49-3-.67-3.28-3.16-4.54-6.07-5.28-3.38-.85-5.44-3.12-7.38-6.3a13.89,13.89,0,0,1,1.92.17c.57.15,1.11.71,1.66,0-3-3.93-3-4-7.3-2.81a4.38,4.38,0,0,1-3.14-.55c-1.78-.85-3.53-1.74-5.29-2.63-.5-.25-.85-.17-1.06.29,0,1.64,2.51,2.72,1.1,4.74-2.08.06-2.83-1.91-4.3-2.74-.79-.45-2.34-.52-2.12.11,1,2.72-2.19,2.81-2.43,4.34s1.44,2.58,2.44,3.71c.44.5.95.93,1.33,1.46.67.93,1.15,2.05.21,3s-2,.16-2.86-.53c-3.55-2.93-7.08-5.88-10.63-8.81-2.8-2.32-5.67-2.56-9-.28,3.66,3.23,6.8,6.62,10.57,9.06,1.74,1.13,3.18,1.54,3.39,4,.18,2.09,2.21,3.74,1.72,6.19-.61,3.06-3.34,4.61-5.07,2.41-4.33-5.51-10.45-9.38-13.86-15.73-2.61-4.86-7.35-7.46-11.95-10.16,2,5.59,6.35,9.31,10.08,13.5.85,1,2.1,1.87,1.36,3.37s-2.17,1.43-3.45,1.19c-3.38-.64-6.6-2.23-10.25-1.09-1,.3-1.72-1.14-2.48-1.92-1.52-1.57-3.09-3.11-4.73-4.55-.83-.72-2-1.36-2.88-.22s0,2,.72,2.88c.13.17.3.31.44.48,5.63,7,11.31,14,16.88,21a29.75,29.75,0,0,0,8.63,7.93,24.6,24.6,0,0,1,9.39,9c2.46,4.26,6.6,7,9.86,10.53a2.67,2.67,0,0,0,3.57.68c1.57-1,1.61-2.5.89-4-.46-1-1-2-2.38-2.25-.82,1,1.09,2.54-.72,3.68a6.58,6.58,0,0,1-4-5.33c-.28-3.93-2.45-6.43-5.31-8.61-3.14-2.4-5.15-5.36-5-9.47Zm48.17-138.36c1,1.21,2.4,2.46-.33,3.3-1.06.32-2.84-.71-2.89,1.76,8.18,6.9,18.76,8.43,27.84,12.66a2.39,2.39,0,0,0,.68-2.95c-.45-1.65-.33-3.15,1.55-3.75a4.69,4.69,0,0,1,5.27,1.74,2.48,2.48,0,0,1-.53,4c-1.79,1.28-1.62,2.49-.92,4.48a17.53,17.53,0,0,0,8.16,9.88c3,1.73,6,3.65,9,5.46a7.42,7.42,0,0,1,3.84,5c1.07,4.67,6.09,7.84,11.17,7.19,2.73-.35,3.16.73,2.58,2.88-1,3.63-2.4,4.28-6.35,3.19-1.51-.42-3-2.08-4.59-.39a2.27,2.27,0,0,0,1.08,2.4c6.92,4.22,13.13,9.7,20.68,12.72a11,11,0,0,1,7.14,7.83,15.91,15.91,0,0,0,7.53,10.27c5.73,3.33,10.15,8.27,15.59,11.93,4,2.71,7.59,6,8.54,11.15l.17-.18c-2.62-.56-5.06-2.52-7.94-1,.89-4.37-2.72-5.91-5.17-8.14a1.69,1.69,0,0,0-2.35.07,1.92,1.92,0,0,0-.07,2.88c2.1,2.42,4,5.22,7.91,4.61-.36,2.68.5,4.43,3.1,5.8,4.65,2.44,8.64,5.85,12.56,9.39s8.19,6.57,12.36,9.77c.69.53,1.68.83,2.34-.08s.15-1.65-.36-2.4c-1.16-1.69-3.8-2.25-3.88-5.71,3.09,1.32,4.88,3.58,6.71,5.48,4.25,4.39,10.8,7.19,10.77,14.76a1.91,1.91,0,0,0,1.25,1.35c3.58.51,4.71,3.54,6.55,5.93,2.39,3.13,5,6.1,7.59,9.07,2,2.23,4.16,3.76,7.2,1.73-1.91-5.14-1.91-5.14-.73-6.53,2.92-3.44,3.2-4.15.16-7.63-4.74-5.44-7.38-11.77-9.51-18.52-1-3.08-3.59-5.74-4.16-8.83-1.06-5.79-5-2.37-7.6-3.25a11.47,11.47,0,0,1-7.65-8.42c-.45-2-.79-4.21,1.18-5.35,1.78-1,2.42,1.37,3.68,2.07a1.31,1.31,0,0,0,1.8-.19c.39-2.23-1.09-3.69-2.57-4.9-8.82-7.21-16.15-16.1-25.69-22.52a35.66,35.66,0,0,1-8.25-7.48c-3.83-4.91-8.47-8.73-13.37-12.47a136,136,0,0,1-17.67-15.61c-3.5-3.77-6.39-8.64-12.88-9.07-3.23-.22-6.46-2.45-8.85-5.56-3.93-5.15-9.09-8-16-6.57-2.29.49-5.19.92-6.61-2.06,1.43-1.91,3.48-1.54,5-2.43,3.06-1.85,3.27-3.42.6-6.1a36.69,36.69,0,0,0-10.74-7.45c-3.77-1.72-9-2.44-11-5.37-2.51-3.85-5.45-4.32-9-5.12a11.7,11.7,0,0,1-5.35-2.41c-6.38-6.1-15.82-6.2-22.46-11.71-.44-.37-1.27-.14-2,.74a13.32,13.32,0,0,0,4.93,6.43,31,31,0,0,1,11.46,12.82A1,1,0,0,0,1022.83,435.8ZM961,1633.08a6.45,6.45,0,0,0,4.56-1.66c2-1.36,3.9-2.87,6-4a4.53,4.53,0,0,1,5.53.49c1.61,1.49.67,3.13.23,4.85a53.42,53.42,0,0,1-6.34,14.39c-2.57,4.19-5.74,7.74-11.05,8.58a15.15,15.15,0,0,0-8,4.31c-2.57,2.47-5.18,4.59-8.71,5.61-2.09.61-4.53,2-3.7,4.61,1.47,4.74-1.38,6.56-4.8,7.86-5.75,2.18-8.67,6.4-9.75,12.21a20.16,20.16,0,0,1-.86,3.18c-2.57,6.92-7,11.47-14.82,12-3.49.25-7,1-10.42,1.47a6.34,6.34,0,0,0-5.17,3.63c-1.52,3.4-3.52,6.63-4.21,10.34a159.37,159.37,0,0,1-6.67,25.43,12.35,12.35,0,0,0,.59,10.77,12.28,12.28,0,0,1,1.24,7.64c-.7,6-.31,6.4,5,9.18,3.48,1.83,8,2.7,10.09,5.9,2.51,3.82,5.93,4.75,9.68,6a91.14,91.14,0,0,0,14.07,3.05c7.39,1.16,14.92.27,22.24,2a13.77,13.77,0,0,0,5.89,0c5.87-1.26,11.81-.76,17.7-1.21,13.7-1,27.47.26,41.15-1.66a8.15,8.15,0,0,0,6.38-3.8c2.3-3.48,4.49-7.11,7.72-9.79,2.49-2.07,3.76-4.68,5.06-7.52,1.82-4,1.61-8.85,4.52-12.28,5.3-6.24,6.43-14.18,9-21.48,2.18-6.34,4.2-12.9,4.42-19.77a8.55,8.55,0,0,1,2.07-5.43c3.4-4,5.06-9.16,5.69-13.77,1.09-8.11,4.3-15.14,7.78-22.16a147.91,147.91,0,0,0,11.1-32.23,35.87,35.87,0,0,0,.76-5.86c1.05-16.06-3.31-30.73-11.2-44.59-5.64-9.89-10.86-19.89-14-31.08-2.46-8.84-4.5-17.86-7.65-26.49-2.92-8-3.54-16.74-7.48-24.46-.56-1.1-.44-2.58-.52-3.89-.55-10.14-3.52-19.85-5.43-29.74a4.36,4.36,0,0,0-3.27-3.69c-6.1-1.84-13.23,1.92-15,8-1.93,6.47-2.3,13.46-6.58,19.15-2.19,2.92,1,6.83-1.21,9.47s-5.13,4.63-5.92,8.38a15.17,15.17,0,0,1-3.66,6.93,10.42,10.42,0,0,0-2.33,10.4,12.67,12.67,0,0,1-1.42,10.13c-2.08,3.51-2.61,7.38-2.54,11.41a44.35,44.35,0,0,1-.81,11.13c-2.34,10-4.82,20.07-6.6,30.21a23.9,23.9,0,0,1-7.22,13.64c-2,2-4.06,4-6.12,6-1.29,1.24-2.6,2.57-2.64,4.41A60.27,60.27,0,0,1,961,1633.08Zm32.5-557.69c4.25-2.06,6.51-5.85,9-9.36,3.08-4.26,5.57-9.13,9.35-12.63,3.41-3.17,5.24-6.2,4.87-10.75a11.64,11.64,0,0,1,.63-3.88,173.77,173.77,0,0,0,5.41-27.71c1.19-10.14-1.22-19.59-4.87-28.86-.64-1.63-1.62-3.39-3.83-2.79-1.8.49-1.85,2.19-1.87,3.79a38.83,38.83,0,0,1-.27,4.58,17.56,17.56,0,0,1-8.74,13.27c-5.22,3-9.69,7.76-16.28,8.17a4,4,0,0,0-2.3,1.19c-4.1,4.11-9.4,6.27-14.24,9.22-3.77,2.31-7.29,3.68-11.61,3.51-12-.46-22.33,4.12-31.42,11.46-5.31,4.29-11.7,5.87-17.71,8.44a5,5,0,0,1-4.43-.49c-4.45-2.37-9.43-3.44-13.85-6a74.66,74.66,0,0,0-20.12-8c-3-.7-6-1.11-9-1.8-5.11-1.2-9.4-4.86-9.25-8.93.19-5.37-1.87-8.78-6.53-11a7.56,7.56,0,0,1-2.5-2.11c-6.13-7.65-13.72-14.15-18-23.3-2.08-4.46-6.58-6.24-10.84-8.08-1.67-.73-2.87-.26-4,1.17-6.79,8.79-12.59,18.33-13.78,29.44-1.9,17.63-2,35.24,3,52.67a104.3,104.3,0,0,0,13.62,29.7c5.65,8.42,12.83,14.84,22.44,18.52,5.11,2,10.06,4.38,13.87,8.56a13,13,0,0,0,4.49,2.67c9.84,4.46,20.88,4.93,30.73,9.39,1.14.51,2.59.35,3.89.54,18.11,2.66,34.69-2.67,50.92-9.77,1.2-.52,2.83-.76,3.41-2.65-9.31.74-17.67,5.79-27.13,3.19,15.37-5,30.31-10.61,44.5-18.57,14.67-8.23,24.43-21.15,36.07-34.12C996.93,1069.3,994.47,1072,993.47,1075.39Zm-448.59,53c-4.84.34-4.81.33-5.27-4.63a17.73,17.73,0,0,0-3.46-9.06c-3.16-4.37-4.88-9.23-3.41-14.79a13.45,13.45,0,0,0,0-8.37c-.68-1.85-.28-3.88.06-5.85,1.23-7.07.31-8.74-6.17-11.74-3.38-1.56-4.09-1.27-4.54,2.56-.39,3.23-.69,6.24-4.94,6.4a2.15,2.15,0,0,0-2.11,1.32c-.89,3.14-2.73,6.52-2.2,9.44,1.16,6.44-.1,12.68-.12,19,0,6.06,1,11.91,4.73,16.79,8.54,11.15,19.51,18.69,33.41,21.73a18.3,18.3,0,0,0,11-.71c4.42-1.77,4.85-3.06,2.64-7.46-.59-1.17-1.26-2.31-1.76-3.52C559.09,1130.8,554.24,1127.76,544.88,1128.42ZM733.33,881.15a17.79,17.79,0,0,0,.16-2.37c-.18-4.23-1.8-5.07-5.4-2.53-3,2.09-3.17-.11-3.86-2-.58-1.58-.73-3.92-2.92-3.84-2.45.08-2.69,2.47-3.15,4.38a24.14,24.14,0,0,1-.75,2.51c-.94,2.66-.69,4.94,2.47,5.6,3.39.72,3.69,3.18,2.77,5.47-1.18,3-3.35.42-5,.11-7.71-1.49-9.36.54-12.31,7.34-1,2.28-.32,4.74.85,7,1,1.86.68,2.92-1.48,4-5,2.63-5.27,8.69-.84,12,3.33,2.53,7.37,3.74,10.92,5.8a31.32,31.32,0,0,0,22.09,3.74c6.65-1.22,7.53-5.36,4.79-11.27-2.93-6.34-10.61-11.64-6.38-20.38.29-.59-.66-1.68-.56-2.48C735.29,889.83,732.09,885.86,733.33,881.15Zm330.4,83.16c3.64-.21,6-.32,8.45-.48,2.62-.18,5.72.06,6.67-3s-1.54-5.25-3.55-7.23a11.76,11.76,0,0,0-2.8-1.7c-4.07-2.21-8.53-3.41-12.9-4.84-7.85-2.55-15.62,0-23.35.56-5,.37-8.57,4.17-10.32,9.12-2,5.57.1,8.61,5.89,8.47a15.69,15.69,0,0,0,5.15-.87c4.25-1.61,8.53-1.64,13-1.11C1054.91,963.8,1059.87,965,1063.73,964.31Zm-741.31,678.9c-6.39,1.64-13,2.43-19.09,5.5-1.36.69-2.73,1.37-4.08,2.09-3.74,2-7.25,4.65-8.89,8.46-3.26,7.6-10.3,13.44-10.41,22.5,0,1-1.11,2-.21,3,1.05,1.14,2.46.7,3.69.3a7.12,7.12,0,0,0,4.51-3.6c1.58-3.64,5.93-6,5-10.85-.15-.85.73-2.07,1.44-2.86,6.67-7.42,12.76-15.55,22.65-19.21a27.48,27.48,0,0,0,4.14-2C322.14,1646,323,1645.28,322.42,1643.21ZM721.27,641.74c1.86-2.24,1.49-4.37.9-6.53-1-3.6-2-7.2-4.4-10.2-1-1.21-2.28-2.54-1.56-4.09,1.59-3.41,0-6.32-.73-9.5-1.19-5.07-1.86-10.26-2.76-15.39-.43-2.4.58-6.4-3-6.14-3.3.23-2.28,4.13-2.32,6.58-.25,14.77,2.53,29.23,4.69,43.75.36,2.46.91,5.14,3.51,6.67,2.19-3.47-1.58-7.49,1.27-10.59C719.73,637.22,718.73,640.5,721.27,641.74ZM851.58,937.88c6.59,0,11.34-1.65,16.23-2.32,22.81-3.09,45.7-4.86,68.73-2.79,3,.27,6,0,9.05,0C925.52,925.87,863.92,929,851.58,937.88Zm86.21-319.13c1-1.07.22-2-.17-3-2-4.88-6.12-7.89-9.61-11.48-2-2-4.64-3.74-4.14-7,.56-3.77-1.61-5.7-4.39-7.25a29.74,29.74,0,0,1-14.23-17.11c-.07-.2,0-.44-.13-.64a2.24,2.24,0,0,0-3.17-1.38c-1.38.52-1.11,1.72-.63,2.75,2.53,5.39,6.84,9.62,9.83,14.67,6.4,10.82,14.43,20.22,23.37,28.94C935.41,618.07,936.18,619.34,937.79,618.75ZM883.9,658.13c-2.08-6.7-4.69-12.89-5.46-19.67-.29-2.56.61-6.77-4.83-5.06-1.25.39-2.23-1.84-3.22-3s-1-3.51-3.45-3.37c0,6.26.06,12.45,4.14,17.75.61.79.62,2.08.8,3.16C873,654.62,878.12,656.65,883.9,658.13ZM805.13,643c-.1,9,4,16.16,6.55,25.32,3.68-6.32-1-11.16.72-15.88,2.16-.13,2.53,1.55,3.12,2.89a21.68,21.68,0,0,1,1.5,8.36c.08,2.69.82,4.95,3.79,6.32.48-12.87-6.47-23.4-8.59-35.16a39.14,39.14,0,0,0-.45,5.75c-.15,2,2,4.78-.63,6S808.39,643.61,805.13,643ZM736.71,867.19c-.19,4.07,1.07,7.14,2,10.24,1.26,4.13,2,4.4,5.31,2,1.62-1.18,2.67-2.24,5.12-1.4a2.9,2.9,0,0,0,3.59-3.84,98.74,98.74,0,0,0-6.81-13.36c-1.33-2.18-3.64-.66-5.32.18s-.84,2.18-.2,3.36c1.08,2,2.89,3.82,2.29,6.52C739.62,871.35,739.24,868.21,736.71,867.19Zm370-257.93c.55-3-.64-5.42-2.42-7.78C1098.74,594.16,1091.9,588,1086,581a14,14,0,0,0-1.91-1.78c-.69-.56-1.55-1-2.3-.28s-.4,1.62.13,2.35c1.54,2.12,3.7,3.64,5.23,5.83a176.93,176.93,0,0,1,11,18.3C1100.1,609,1102.64,610.49,1106.68,609.26Zm49.66,338.59c4.57-2,9.21-3.85,13.67-6.06a87.23,87.23,0,0,1,14-5.57c5-1.48,10.27-2.27,15.24-3.89,4.49-1.46,9.65-.68,14.46-4.05C1196.65,927.2,1163.1,938.2,1156.34,947.85ZM862.79,679.75c-2.25-16.31-8.9-31.14-15.71-45.92-.4,5.82.31,11.3,3.64,16.18a25,25,0,0,1,2.9,7.28C855.89,665,858.6,672.63,862.79,679.75Zm156.92-196.87c1.49,2.8,3.83,4.62,4.75,7.34.23.68,1.34,1.65,1.88,1.55,4.47-.81,6.14,2.33,7.83,5.38,1,1.84,2.7,2.72,4.38,3.73,1.46.88,2.75,1.37,4-.27,1.35-1.82-.13-2.85-1.25-3.76q-8.09-6.59-16.29-13C1023.69,482.85,1022.37,481.35,1019.71,482.88ZM1218.26,921.8c.67,0,1.78,0,2.85-.19,4.37-.67,5.45-2.89,3.42-6.93s-6.64-4.4-9.46-.58c-.64.88-1,1.93-1.65,2.83-.79,1.16-3.17,1.54-2.27,3.47s3,1.25,4.72,1.4C1216.52,921.85,1217.18,921.8,1218.26,921.8ZM921.6,641c-3.53-11.21-11.93-18-18-26.43-.36-.5-1-.87-1.76.35C907.85,623.58,910.9,634.58,921.6,641Zm39.7,710a16,16,0,0,0,2.82-.68c2.14-.91,4.83-1.53,4.17-4.8-.54-2.69-3.48-4.22-6.68-3.61a9.73,9.73,0,0,0-2.46.81c-2.11,1.06-4.71,2-3.91,5.09C956,1350.61,958.46,1351,961.3,1351Zm78-522.63c.67-2.19-1-3-1.77-4.23-1.52-2.48,1.87-1.87,2-3.24a4,4,0,0,0-.39-1.88c-2.29-5.17-6.6-6-11.45-2C1031.56,820.73,1032.58,827.36,1039.3,828.37Zm-28.81-458.78c-1.11,1.66-1,2.7-.29,3.14,3.54,2.2,6.44,5.19,9.72,7.71a4.72,4.72,0,0,0,3.62,1.29c1.78-.31,3.51-1.1,4.08-2.88.65-2-1.31-2.44-2.58-3.19a17.22,17.22,0,0,0-6.08-2.37A16.45,16.45,0,0,1,1010.49,369.59ZM1113.11,604a10.19,10.19,0,0,0,5.18,6.45c4.21,2.4,8.13,5,8.83,10.57,4.91-4.65,4.91-4.65,1-8.63-1.83-1.88-3.64-3.78-5.51-5.62-.55-.53-2-1.4-1.94-.43.12,3-.73,2.51-2.31,1.06C1117,606.07,1115.9,604.29,1113.11,604ZM760.63,956.7c0,.65,0,1.3,0,1.95,9.78.8,19.32-.64,28.74-3.24,0-.47-.09-.93-.14-1.4Zm425.74,12.22,1.37.54c2.3-2.84,4.65-5.65,6.9-8.54A6.34,6.34,0,0,0,1196,956c-.16-1.11-.54-2.31-1.76-2.46a3,3,0,0,0-2.27.93C1188.56,958.73,1186.24,963.41,1186.37,968.92Zm-343.45,3.63c-.31-1.45-.58-3.17-1-4.84-.68-2.48-2.28-3.7-4.89-2.86a4.28,4.28,0,0,0-2.44,5.88,11.88,11.88,0,0,0,3.82,4.39c1,.87,2.25,1.52,3.54.64C842.86,975.1,843,973.93,842.92,972.55ZM1095,574.94c.22,6.83,5.64,9.4,8.91,13.39a2,2,0,0,0,2.93-.07c1.09-.94.37-1.86-.14-2.83C1104.17,580.63,1099.55,578.3,1095,574.94ZM804.34,676.29c-.84-7.91-1-16-6.05-22.77C797.78,661.79,801.92,668.81,804.34,676.29Zm83.37-64.57c3,5.86,4.3,13.3,12.75,16.18C898.52,620,892.17,616.66,887.71,611.72Zm145.5,17.46c1.56-.38,1.35-1.38.91-2.5-2-5.26-6.77-8.32-10.2-12.43a1,1,0,0,0-1.66,0,2,2,0,0,0-.22,1.76c3.28,4.26,6.63,8.46,10,12.64C1032.28,629,1032.81,629,1033.21,629.18ZM568.51,1273c.17,2.18.45,4.67,3.29,4.55,2.6-.11,2.87-2.89,3.79-4.74a3.21,3.21,0,0,0-1.34-4.46c-1.11-.74-2.35-1.24-3.63-.52C568.62,1269,568.87,1271.1,568.51,1273Zm573.81-650.68c-.49-2.85-.23-5.26-1.71-6.37-3.81-2.82-5.61-7.22-8.88-10.42-1.28-1.25-2.15-3.09-4.6-3.64C1130.07,607.68,1138.6,619.35,1142.32,622.33Zm-28.38-150.42c-3.41-8-9.6-13-15.57-13C1104.1,462,1106.73,468.64,1113.94,471.91ZM184.25,1734.21c-.76-6.72-5.79-6.59-9.78-7.82a1.69,1.69,0,0,0-2.22.83c-.39,1,.22,1.66.89,2.26C176.1,1732.15,179.31,1734.25,184.25,1734.21Zm365.87-625.72c-.13-2.57-2.9-5.81-4.86-5.53-2.25.32-2.41,2.22-2.33,4,.12,2.67,2.21,5.14,4.26,5S550.1,1110.34,550.12,1108.49Zm794.31,432.14a20.47,20.47,0,0,0-.61-11.16c-.53-1.49-1.91-2.56-3.61-1.64a2.35,2.35,0,0,0-.79,3.41C1341.26,1534.24,1342.64,1537.48,1344.43,1540.63ZM873.25,940.32c-6.35-2.08-9-1.43-12.47,3.07C865.46,944.16,869.58,944,873.25,940.32ZM798,937.16c-.08-2.29-.91-4.21-3.69-4.19-1.73,0-3.63.32-4,2.47-.29,1.55,2.84,4.41,4.87,4.61S797.83,939,798,937.16ZM633.91,682.3c-.91-6.15-.84-12.55-4.38-18C627.36,671.17,632.76,676.26,633.91,682.3Zm163.27-35.81c1.53-7.15-.23-14.77-4-17.66C793.89,634.76,794,640.34,797.18,646.49Zm179-149.85c-1-.12-1.73.06-1.9.74a2.81,2.81,0,0,0,.14,1.86c.9,1.68,7,4.54,8.44,4,.35-.14.82-.59.81-.88-.11-3.55-3.65-3.12-5.51-4.67A9.68,9.68,0,0,0,976.16,496.64Zm107.06-64c-4.82-5.08-10.15-7.37-14.84-6.84C1072.05,430,1077.14,430.41,1083.22,432.65ZM785.76,637.37c.38,4.26-.29,8.84,3.24,13.1C789.74,644.13,789.18,641.63,785.76,637.37Zm-75-241.84a4.72,4.72,0,0,0-4.7-4.41c-1.29.06-2.94.26-2.83,1.95.21,3.09,3,3.32,5.21,3.93A1.7,1.7,0,0,0,710.72,395.53Zm287.19,941c1.23,0,2.13-.57,2.11-1.9,0-1.88-2.62-3.83-4.68-3.56a2.19,2.19,0,0,0-2.14,2C993.06,1334.89,995.45,1336.58,997.91,1336.48ZM656.74,541.67c-1,6.68-1.32,13.35.13,20C658.24,555,657.12,548.34,656.74,541.67Zm332.62-21.29c1.5-2.82-.19-3.64.23-4.61,1.41-3.26-1.1-3.66-3.09-4.38a1.87,1.87,0,0,0-2.34.67c-.53.89.06,1.66.6,2.37Z"/><path d="M1219.64,1441.35c6.89.89,13.18,1.49,19.26,3.25a14.47,14.47,0,0,1,2.46.81,2,2,0,0,1,1.27,2.07,2.21,2.21,0,0,1-2.31,1.84,2.36,2.36,0,0,1-.65,0c-6.76-1.47-13.52-2.92-20.26-4.45-1-.24-2.33-.84-2.2-2.05C1217.4,1441,1219.06,1441.45,1219.64,1441.35Z"/><path d="M977.1,1712.44c-3.86-.23-7.18-1.91-10.44-3.68a4,4,0,0,1-1.93-3.26c-.5-4.35,2.94-10.3,7.29-11.21,5.69-1.2,10.59-4,15.7-6.44,4.2-2,8.52-3.31,13.27-2.65,2.11.3,3.84,1,4.41,3.23.5,2-.51,3.42-2,4.49-3.52,2.58-6.31,6-10,8.39a24.09,24.09,0,0,0-7.22,6.56C984.07,1711,980.61,1711.91,977.1,1712.44Z"/><rect width="1683.78" height="2383.94" class="a"/></svg>