<svg xmlns="http://www.w3.org/2000/svg" xmlns:xlink="http://www.w3.org/1999/xlink" viewBox="0 0 1683.78 2383.94"><defs><style>.a{fill:none}.b{clip-path:url(#a)}</style><clipPath id="a"><rect width="1683.78" height="2384.94" class="a"/></clipPath></defs><title>CHARLII_k</title><g class="b"><path d="M1431.76,1593.17c-4.39-.81-8.77,0-13.06.57-5,.69-6.47,3.12-5.63,7.91,1.53,8.75,1.53,8.74-7.17,9.81-.5.06-.94.62-1.45,1-.49,2.23,1.5,2,2.66,2.61,2.89,1.47.86,3.54.63,5.34-.3,2.39-2,2.45-3.92,2.17a32.51,32.51,0,0,0-5.22-.29c-2.7,0-3.67,1.59-2.94,4.07,1.06,3.54,3.12,6.85-.61,10.37-1.66,1.55.09,3.86,1.23,5.52,3.73,5.42,9.09,7.92,15.5,8.72,2.11.27,5.77-.43,5.71,2.52-.08,3.47-3.9,2.83-6.3,2.83-4.06,0-8.12-.6-12.18-.86-2.39-.16-5-.07-6.18,2.31-1.39,2.86,1.35,4.09,3.07,5.5,14.48,11.85,30,22.15,45.75,32.24,16.74,10.75,32.77,22.34,47.13,36.15,12.62,12.14,27.17,22,39.54,34.51,9.69,9.79,18.38,20,25.14,32.21,9.9,17.88,20,35.6,28.16,54.36,9.78,22.48,18.29,45.44,26.76,68.44,8,21.61,15,43.55,22,65.44,4.58,14.12,8.47,28.5,10.32,43.33a130,130,0,0,0,3.35,17.16,105.83,105.83,0,0,1,3.09,19.84c1.6,22.11,2.45,44.31,5.23,66.27,2.48,19.7,4.14,39.38,5.55,59.17,1,13.35,3.58,26.52,1.37,40a89.41,89.41,0,0,1-2.53,12.82c-2.1,6.66-4.38,13.35-4.94,20.37s-4.3,11.13-11.19,12.49c-5.15,1-10.25,2.27-15.41,3.19-7.62,1.37-9.55,3.06-9.71,10.84-.2,10.2-.18,20.43.29,30.62.45,9.89,1.53,19.76,2.46,29.62a25.17,25.17,0,0,1-.9,8.65c-.75,3-.07,5.05,3.33,5.85,8.43,2,16.66,2.29,24.85-1.27,5.18-2.25,9-5.63,10.2-11.12,1.41-6.55,5.23-11.68,9-16.79,3.14-4.23,6.53-8.21,8.42-13.21.62-1.64,1.5-3.32,3.68-3.09s2.64,2,3.12,3.73c2.31,8.2,2.89,16.68,3.42,25.1.69,11.06.65,22.14,3.55,33a39.65,39.65,0,0,1,1.17,11.29c-.75,23.69,3.65,47,4.49,70.66.78,22,2,44.25,6.23,66.08,1.51,7.69,2.31,15.43,1.21,23.45s1.09,16.26,2.56,24.26a274.49,274.49,0,0,1,4.2,40.85c.33,10.18,1.66,20.34,2.88,30.46,1.88,15.53,1.11,16.61-14.41,16.61q-154.93,0-309.86-.07c-27.43,0-54.85.08-82.28,0-7.51,0-10.2-3.13-9.39-10,.35-3,2.29-4.56,4.49-6.05a47.58,47.58,0,0,1,35.84-7.62,171.18,171.18,0,0,1,23.8,5.64c16.43,5.28,32.47,4.54,49,.05,20.61-5.58,39.78-14.73,59.67-22.06,6.38-2.35,9.25-6.76,10.49-13.61a86,86,0,0,0,.57-28.63,78.55,78.55,0,0,1-.34-14c.4-12.86-1.13-25.64-1.55-38.46-.21-6.42-2.74-7.91-8.39-4.54-7.78,4.63-16.58,7.13-24.11,12.29-4.36,3-9.76,3.73-14.86,5-13.85,3.4-27.84,6.11-41.58,10.12a43.38,43.38,0,0,1-30.76-2c-13.09-5.93-27.42-7.8-41.64-9.46-12.73-1.49-24,4-35.39,8.24-5.46,2.05-6.93,7-6.25,13.05,1.54,13.65.53,15.72-12.25,20-18.18,6.16-36.26,12.74-55.59,14.89-13.64,1.52-27.14,2.76-40.93,1.21-16.72-1.87-33.07,1.62-49.23,5.66-2,.48-3.7,1.7-5.61,2.42-6.39,2.4-8.89,6.79-7.93,13.65,2.53,18.16-.42,20.08-16.32,25-12.82,4-24.17,11.5-37.18,15.07a113.56,113.56,0,0,1-27.6,4c-4.18.09-6.53-1.2-7-5.7-.73-6.94-2.23-13.81-2.69-20.76-1-15.72-3.89-31.18-6.1-46.74q-6.6-46.29-13.08-92.59c-2.4-17.31-4.86-34.59-5.14-52.17-.19-11.9-2.29-23.75-3.42-35.64-1.62-17.08-3.25-34.16-4.67-51.26-2.91-34.83-5.48-69.69-8.58-104.5-3.07-34.55-6.69-69-9.9-103.57-.86-9.27-.47-18.64-2-27.87-.8-5,3.09-6.46,6.36-8.07,2.57-1.27,5.35-2,7.94-3.47,4.31-2.39,7.17-4.74,5-10.25-1-2.6.76-5.09,2-7.4a87.92,87.92,0,0,0,4.58-9.41c2.08-5.4,5-6.73,10.86-5.83,1.93.31,3.88,1.48,5.82,0-3-3.64.94-4,2.6-5.2,2.59-1.86,5.46-3.35,8.12-5.14,2.38-1.6,4.65-3.39,7.38-5.4,1,2.8,1.71,5.8,3.07,8.46,2.15,4.2,4.47,4.84,8.33,2.26a34.23,34.23,0,0,1,7.82-3.79c9-3.2,16.68-8.45,22.27-16.18,5.78-8,12.16-15.59,16.41-24.63,3.32-7,9.28-12.1,14.86-17,8.25-7.27,13.61-16.64,20.4-24.93,13.45-16.42,26.27-33.37,39.9-49.64,11.48-13.71,20.72-28.86,30-44,3.39-5.48,5-11.87,6.81-18.07.23-.78.11-1.84.59-2.35,9.26-9.72,7.84-22.56,10-34.31.45-2.4,0-5-2.85-5.63-3.52-.76-4.27,2.3-5.13,4.71a10,10,0,0,0-.57,4.3c.39,3.69-1.62,5.21-4.75,6.21-4.9,1.56-5.59,1.22-6.74-4.09-.9-4.18-2.82-5.28-5.69-2.37-7.1,7.21-15.36,13.35-20.41,22.52-5.18,9.38-10.6,18.66-16.46,27.63-5.51,8.43-7.16,18.27-11,27.28-1.5,3.5-2.72,7.08-5.12,10.06-4.25,5.28-7.78,10.77-9.09,17.67-.88,4.61-4.32,8.55-7.48,11.52-12.65,11.92-21.44,26.65-31.15,40.72-3.49,5-3.47,11.47-6.74,16.85a223.29,223.29,0,0,1-21.81,30.53c-2.25,2.6-5.35,4.48-8.16,6.54a3.91,3.91,0,0,1-4.89,0c-1.31-1-1.26-2.52-.9-4,5.33-21.75-5.21-37.68-19.3-52.19a85.13,85.13,0,0,0-12.8-10.52c-7.25-5-14.85-7.9-23.73-7.25-1.92.15-4,.85-6.26-1.13,2.05-3.59,5.63-5.7,8.84-7.8,11.22-7.32,22.54-14.57,35.1-19.47,4.9-1.9,8.48-4.91,10.59-9.75,7.43-17.11,16.73-33.24,25.49-49.68,7.18-13.46,11.59-27.89,11.1-43.51a117.61,117.61,0,0,1,2.85-29.52c3-13.39,3.22-27.15,4.28-40.78.86-11,1.54-22.06,0-33.13-.64-4.61.07-9.28,1.09-13.9.92-4.12.65-8.13-3-11.17-2.79-2.3-3.82-5.82-5.78-8.7-4.17-6.12-7.08-6.87-14.07-4.43-8.33,2.9-13.86,9.49-20.33,14.86-1.33,1.11-2.33,2.62-3.63,3.78-5.83,5.23-8.93,5.53-15.66,1.5-2.5-1.5-4.83-3.27-7.33-4.77-5.16-3.12-6.29-2.91-10.52,1.4-2.65,2.7-4.47,6.07-7.43,8.57a30.37,30.37,0,0,1-21.76,7.52c-1.73-.07-4.49-.63-5,.18-4.06,6.18-9.83,4.73-15.66,4.44-3.43-.17-5.43,3.09-7.68,5.33-2.66,2.65-4.83,5.68-8.52,7.34-4.81,2.16-5,3.85-.64,7.22,4.55,3.54,8.71,7.85,14.68,9.25,1.51.35,2.72,1.43,1.95,3.17a2.44,2.44,0,0,1-3,1.1q-5-1.63-9.82-3.65c-1.57-.65-3-2.18-4.32.26-1.08,1.95-1.56,3.92.45,5.48a21.89,21.89,0,0,0,4.53,2.55c4.76,2.11,9.57,4.13,14.55,6.26-4.84,1.71-4.93,1.71-10.15-.49-7.21-3-9.17-2.31-11.44,4.94a78.36,78.36,0,0,0-2.25,11.13,34.79,34.79,0,0,1-6.3,15.2c-3.57,4.89-7.09,8.27-14.34,6.9-8.55-1.61-16.58,7.67-14,16.25,1.74,5.85.94,8.6-4.45,11.2-2.34,1.12-4.16,4.2-5.29,6.79-1.86,4.26-5.09,6.2-9.26,7.11a20.94,20.94,0,0,0-10,5.14c-4.59,4.25-4.63,4.21-1.17,10.3,2.38,4.18.94,7.13-3.72,6.26-7.26-1.34-9.47,4.67-12.81,8.37-1.08,1.2-5.05,2.55-3.28,6,.51,1-.38,1.59-1.36,1.57s-1.72-.31-2.59-.39c-2.85-.25-6.05-1.25-7.57,2.36-1.24,2.95.7,7.75,4.43,9.4,5.17,2.29,9.19,6.13,13.89,9,3.91,2.41,3.8,3.29,0,6.13-8.58,6.41-8.8,8.6.11,14,10.74,6.53,18.74,15.47,25.68,25.71,5.24,7.71,10.29,15.58,16.56,22.55,2.8,3.11,3.7,7.25,5.78,10.75,5.16,8.71,9,10.06,18.82,7.76,5.53-1.29,10.3-4.11,15.18-6.58,11.2-5.65,22-.45,29.13,7.12,13.26,14,21.9,30.77,26.69,49.49,1.23,4.8,2.61,9.56,3.92,14.34,1,3.59,0,6.25-3.54,7.86a69.41,69.41,0,0,0-14.62,9.38c-5.81,4.61-38.33,10.66-45.73,9.23-3.85-.74-7.39-1.91-9-6-2.66-7-8.82-9-15.23-10.18-9.16-1.75-18.39-3.12-27.59-4.65s-16.61-6.33-24-11.77c-10.51-7.76-21-15.48-32.79-21.55-11.34-5.84-22.93-11.42-33.65-18.54s-22.76-12-34.59-16.74c-14.84-5.94-29.59-12.39-45.23-16.25a222,222,0,0,0-37.07-6.06,20,20,0,0,1-11.85-4.58c-17.15-13.75-31.64-30.12-46.36-46.28-8.63-9.48-17.11-19.1-25.6-28.7-12.17-13.76-22.71-28.78-33.63-43.5a125.22,125.22,0,0,0-9.42-11.48c-3.36-3.56-6.79-6.73-8.86-11.6-3.25-7.62-10.56-9.65-18.31-9.21-5,.28-9.83.85-14.68-.89a8.69,8.69,0,0,0-4.3,0c-3.92.74-5,2.41-3.29,6.14,4.19,9.23,8.14,18.63,13.16,27.42,13,22.81,28.48,44,44.77,64.59,16,20.22,34.39,38.07,57,51,7.6,4.34,15.64,8,24.4,9.31,12.58,1.83,22.86,8.74,33,15.33,11.46,7.44,22.11,16.13,33.94,23.1a26.62,26.62,0,0,1,5.74,4c12.16,12.46,28.16,17.22,44.07,22,23.16,7,46.35,13.81,68,25.06,6.16,3.21,12.87,5.33,19.32,8,19.4,7.92,38.5,16.64,58.58,22.9,9.44,2.94,18.44,7.26,28.42,8.44,1.52.18,3.64.31,4.06,2.77-2.38,1.68-5,.65-7.48.57-7.88-.24-9.59,1.09-9.53,8.68.17,19.83.46,39.68,2.39,59.43,4.18,42.94,8.83,85.84,12.43,128.84,2.13,25.55,5.25,51,7.87,76.51,2.83,27.54,5.4,55.1,8.45,82.61,3.72,33.62,7.89,67.19,11.76,100.79q4.15,36.06,8,72.13c.93,8.66.16,9.37-8.85,9.37q-105.48,0-211,0l-780.78.13c-2.63,0-5.26,0-7.88-.11-9.44-.5-14.27-5.88-12.84-15.26,1.17-7.63.14-15-.24-22.59-.78-15.4-2.23-30.82-.77-46.27.2-2,.13-4.1.42-6.11.64-4.48-1.45-7.28-5.33-9-6.67-2.92-13.33-5.89-20.09-8.6a86.88,86.88,0,0,1-30.08-20.6c-4.11-4.23-6.59-9.5-8.2-15.22-.9-3.16-.86-7-4.92-9.35-2.84,6-2.4,12.19-3.22,18-1.29,9.21-3.64,18.48-4.17,27.49-.64,10.85-2.18,21.47-3.62,32.17-.43,3.17-.54,6.39-1.19,9.51-1.9,9.17.31,18.32,0,27.48a14.16,14.16,0,0,0,3.69,9.58,48.64,48.64,0,0,0,20.56,14.35c10.75,4.18,21,9.5,33.22,12.74-3.71,2-6.35,1.5-8.88,1.56-32.68.71-65.34-.77-98-1-7.72,0-9.27-2.27-7.33-9.73,2.25-8.61,6.76-16.08,12-23.12,1-1.39,3.18-2.79,3.09-4.07-.46-6.83,4.36-11.07,7.14-16.35a21.94,21.94,0,0,0,2.31-15.26c-1.72-8,1.12-14.28,5.63-21.06,5-7.5,8.67-15.83,15.33-22.25a8.11,8.11,0,0,0,1.83-4.83c1.12-12.25,6.05-23.41,9.82-34.89,1.56-4.76,3.84-9.12,8.7-11.56,5.37-2.7,4.51-8.73,5.6-13.08,2-8.07,3.93-16.55,2.16-25.08a9.17,9.17,0,0,1,2.39-8.83c3.37-3.58,4.1-8.13,5.11-12.76,3.28-15.08,4.65-30.5,8.78-45.44,3.74-13.51,4.75-27.57,7.19-41.35,2.84-16.06,5.15-32.16,9.27-48,3.65-14,5.15-28.62,8.79-42.71,8-30.77,13-62.15,19.53-93.21,4.24-20,10.77-39.34,17.4-58.64q5.55-16.14,10.63-32.42c4.88-15.53,15-28.22,22.58-42.3,7.89-14.7,19-27.18,28-41.2,21-33,45.4-63.59,70.91-93.15,20.54-23.8,41.21-47.66,66.25-67.14,5.5-4.28,10.33-9.44,15.4-14.26,10.36-9.83,20.58-19.81,31-29.54,5.69-5.3,9-10.83,7-19.23s1.74-16.19,5.56-23.36c3.58-6.74,4.38-12.78.9-19.81-3-6-4.7-12.73-11.86-15.4-4.21-1.56-5.57-4.82-5.49-9a12.78,12.78,0,0,1,0-1.75,45.7,45.7,0,0,0-4.19-28.65c-2.79-5.65-1.51-12.67-.6-19a99.68,99.68,0,0,0,.91-13.91c0-7,.38-13.94,3.53-20.51,2.42-5,2.3-10.8,3.34-16.23.87-4.57-1.46-7.86-5.17-10.26-1.71-1.1-3.74-1.82-5.2-3.16-2.05-1.88-1.9-3.65,1.28-4.1,1.91-.26,4.45.73,5-2.15.52-2.63-1.33-4.27-3.11-5.86-7.75-6.93-13-15.71-17.1-25-3.21-7.34-6.75-13.53-15.26-15.28a6.39,6.39,0,0,1-5.4-6.07c-.33-3.29-2.26-6-3.27-8.9-2.45-7.2-7-12.48-12.46-17.47A21.85,21.85,0,0,1,117,1492a42.59,42.59,0,0,0-6.21-22.49c-2.44-3.94-2.59-8.23-2.76-12.64-.31-8.09,1.35-16.39-2.34-24.16a2.55,2.55,0,0,1-.25-1.71c4.48-12.17-4.28-23-3.47-35,.31-4.61-.59-9.19,1.85-13.52s2-8.39-.54-12.44c-3.23-5.26-4.27-10.61-1.87-16.65,1.88-4.77-.44-9.15-2.79-13.25-1.3-2.27-2.87-4.39-4.27-6.61-2.13-3.38-1.43-6,2.05-8a38.45,38.45,0,0,0,4.45-2.77c2.82-2.14,4.32-5.09,2.8-8.43-2.13-4.66-2.24-9.61-2.94-14.49-1.06-7.53-5.63-13.35-9.75-19.34-1.81-2.63-3.76-5.15-5.42-7.91-3.38-5.62-6.08-10.65-2.64-17.76,2.58-5.32-1-10.67-4.24-15.35-6.41-9.39-8.83-19.13-6.52-30.9,2.07-10.55,5.25-20.86,6.79-31.53.78-5.47,1.93-10.76,5.92-15.21,3.17-3.55,3-8.37,1.12-12.46-2.22-4.88-1.65-8.57,1.69-12.8,4.6-5.82,3.89-9.06-2.14-14-8.78-7.19-17.73-14.19-26.55-21.33-1.5-1.21-3.8-2.31-2.75-4.84.79-1.88,2.9-1.56,4.57-1.94a36.78,36.78,0,0,0,5.85-1.64c3.88-1.6,6.4-3.79,4.27-8.68s-1.06-10.37-1.22-15.59c-.14-4.37.5-8.86-.3-13.1-1.3-6.91-2-13.69-9.72-18.2s-13.27-12.17-16.31-21.06c-.47-1.37-1.44-2.82.09-3.95,1.35-1,2.83-.23,4.07.51,4.51,2.67,8.94,5.46,13.47,8.1a4.6,4.6,0,0,0,4.62.43c-.38-3.66-3.85-4.52-6-6.45-2.95-2.61-7-4.45-5.35-9.81.64-2.07-1.48-3.67-3-5s-3.24-2.5-4.7-3.91c-2.75-2.68-3.55-12-.84-13.61,4.73-2.86,6.49,1.66,8.9,4.34,4.63,5.16,13.23,7.35,18.22,4.69,4.77-2.55,7.81-10.18,6.66-16.78-.2-1.15-.61-2.26-.75-3.42-1-7.84-4.34-13.77-12.42-16.32-3.33-1.06-5.33-3.49-4.92-7.32.38-3.5,2.71-4.62,5.8-5.51,8.74-2.52,11.71-8.75,8.47-17.29-.62-1.62-1.81-3-2.54-4.59-3.12-6.86-1.52-12.89,4.47-17.63a20.33,20.33,0,0,0,4.4-4.17c3.78-5.52,1.59-11.1-5-12.47a100.59,100.59,0,0,0-12.14-1.48,12.63,12.63,0,0,1-8.59-3.78c-2.45-2.61-4.76-5.48-3.63-9.29,1-3.37,4.37-3.66,7.21-3.95,6.43-.64,10.66-4.13,13.74-9.54,2.29-4,6.09-7.07,7.46-11.74.51-1.75,2.41-2.46,4-3.24,5.48-2.72,10.76-6.06,16.51-7.92,7.29-2.36,11.89-7.26,15.41-13.43,2.29-4,3.94-8.34,6.87-12.07,2.78-3.52.21-6.35-2.14-9.19-6.78-8.23-15.31-14.1-24.54-19.17-5.65-3.1-7.12-6-5.93-10.26,1.11-4,4.74-6.6,10.15-6.84,2.89-.13,5.8.61,8.7.63,4.24,0,5.64-2.64,3.53-6.35a2.45,2.45,0,0,0-.5-.71c-10.56-8.07-17.15-20.81-30.37-25.79-2.7-1-5.5-2.05-7.62-4.19-1.68-1.68-3.64-3.62-2.1-6,1.63-2.57,4.13-1.5,6.16-.18,2.19,1.44,4.28,3,6.32,4.68,13.36,10.75,28.89,17.47,44.59,23.77,5.3,2.13,9.64.25,12.87-4.38.16-.24.21-.58.42-.76,8.34-7.07,11.12-17,14.42-26.85,1.23-3.67,2.53-7,1.63-10.93-1-4.25.32-8,3.31-11.26,3.38-3.71,6.56-7.58,4.48-13.26-.67-1.82.53-3.36,1.6-4.78,3.31-4.37,1.95-8-1.52-11.61-4.31-4.48-8.78-8.18-15.23-9.58-7.64-1.66-16.44-7.56-20.77-12.81,7.6-.32,14,1.87,20.06,5.26,3.72,2.07,7.52,3.27,11.51.51,3.41-2.36,5.85-5.26,3.74-9.52-1.61-3.27-.49-6,.15-9.16,1.3-6.47,3.67-13,1.5-19.77-1.16-3.61,1.13-5.09,3.86-5.43,9-1.12,15.68-5.56,21.16-12.59,2.65-3.4,7-4,11.09-4.44,2.89-.3,5.83-.21,8.74-.32,3.14-.1,5.68-1.11,6.88-4.35,2.14-5.81,6.89-7.49,12.5-7.71,2.33-.09,4.67,0,7-.21,1.8-.13,3.93-.71,4.27-2.51,1.61-8.51,10-14.63,8.33-24.31-.49-2.9.69-5.75,2.39-8.24,2.5-3.67,4.45-7.5,4.45-12.12,0-3.2,1.74-5.32,4.57-6.88,7.28-4,12-9.76,13-18.45a15.39,15.39,0,0,1,8.17-11.82,47.69,47.69,0,0,0,12.08-9.93c5.85-6.49,8-6.57,14-.13a14.67,14.67,0,0,0,14.15,4.88c4.62-.77,5.64-3.6,2.94-7.44-1.66-2.35-6.87-2.88-4.61-7.2,1.74-3.33,5.33-.79,8-1.23,4.21-.69,5-2.53,3.58-8.36,1.36-1.78,3.19-.64,4.81-.75,8.25-.53,4.91-8,7.05-12.16,1.59-3.08,1.75-7.19-2.2-9.2-4.41-2.24-8.67-2.28-13,1.28-4.73,3.89-7.32,3.52-10.45-.06-4.15-4.74-2.18-10.73,4-11.91a17.16,17.16,0,0,1,10.23,1.56,18.66,18.66,0,0,0,9.39,1.58c5-.45,8.1-2.45,8.28-7.35.43-12,9.88-14.82,18.13-18.51,4-1.79,9.12-1.31,7.33-8a2.15,2.15,0,0,1,.43-1.53c7-.08,7.28-6.73,10.61-10.43,1.32-1.46,4.42.46,6.6,1.19,6.62,2.23,13.15,4.77,19.81,6.9,2.9.93,6.22,2.76,9-.22,2.2-2.4,2.1-9.45-.24-12.4-3.19-4-5.51-8.59-10.52-11.3-3.46-1.87-6.59-5-4.07-10.78,1.76-4,0-9.35-2.72-13.27s-2.16-7.43.14-11.29c2.9-4.88,6.21-9.24,11.75-11.22,2.88-1,4.83-3.19,7.09-5,4.13-3.31,8.26-6.44,14-6.27,4.09.13,6.18-2.69,7.68-6.11,2.84-6.49,7.41-11.85,11.63-17.41,4.65-6.13,8.84-6.68,14.95-2.3,9.08,6.5,11.87,15.82,3.83,23.61-2.37,2.3-3.71,5.68-5.76,8.93,4.35,1.49,8.59,1.39,12.16,3.58,3.42,2.1,7.6,3.19,8.64,8,.39,1.78,2.12,2.82,3.63,3.63,7.68,4.15,15.36,8.31,23.17,12.19,4.8,2.38,9.85,2.73,15.31,1.91a39.07,39.07,0,0,1,19.82,2.08c5.39,2.06,10.37,5.1,16.71,4,3.46-.63,5.72,2.24,7.26,5.32,3.27,6.51,9.59,9.17,15.72,11.83,2.87,1.25,4.84,1.1,6-3.35,1.84-6.76,4.29-13.82,10.7-18.13,3-2,4-4.78,4.06-8.22a49.3,49.3,0,0,1,.5-7c1.4-8.86,1.94-9.54,11.09-11.56,3.73-.82,4.44-2.51,3.92-6.18-.86-6.08.37-7.37,6.19-7.68a19.78,19.78,0,0,1,7.77.7c10,3.73,19.1,2,28.42-2.82,6.65-3.44,13.89-2,19.77,2.64,3.9,3.08,8.19,4,12.77,5,14.65,3.36,29.53,2.91,44.34,3.06,7.89.09,14,2.21,18.83,8.8C774.92,335,782.26,340.1,792,340.9c5.55.46,11,1.53,15.71,4.84.7.49,1.74,1.19,2.37,1,7.46-2.44,11.42,3.81,17,6.2,7.3,3.12,15.34,5.46,23.5,5.52a19.26,19.26,0,0,1,9.1,2.1,62.94,62.94,0,0,0,23.66,7.11c.1-8.27,2.79-14.5,12-15.8,2.77-.39,3-2.33,1.61-4.55-.16-.25-.31-.49-.49-.73-1.94-2.52-4.63-5-2.14-8.48,2.6-3.66,6.35-3.65,10.24-2.5,1.94.57,3.85,1.21,5.64,1.77,2.15-2.07.21-3.37-.48-4.76A21.06,21.06,0,0,1,912.82,310a60.41,60.41,0,0,0,7.79-11.52c3-5.41,3.49-9.57-.64-15-5.58-7.41-2.51-12.55,6.76-13.49a19,19,0,0,1,14.64,4.44c4.51,3.76,9.17,4.43,14.56,1.67,4.22-2.15,8.77-3.29,13.41-.75a2.58,2.58,0,0,0,3.24-.37c1.26-1.37.18-2.54-.42-3.87-2.51-5.63-2.43-5.71,2.87-8.57,5.12-2.75,10-6.24,15.43-8.09,11-3.78,22.33-3.39,33.39.4,2.36.81,3.26,3.23,4.17,5.39,2.1,5,5.91,8.69,9.53,12.43s9.43,4.31,12.37.37c4-5.33,9.47-6.4,15.14-7.64,8.23-1.8,8.24-1.76,9.72-9.72,1.41-7.55,3.86-8.8,9.7-4.11s11.87,8.46,17.7,12.83c6.15,4.62,11.33,10.19,14.23,17.38s8.63,10.71,15.55,12.74a51.8,51.8,0,0,0,8.64,1.33c3.68.43,7,1.69,8.59,5.18,2,4.37,5.46,5.51,9.86,5.82a19.13,19.13,0,0,1,16.2,10.32c4.53,8,10.62,14.49,19.51,18,4.13,1.63,6.74,5.48,10.16,8.19,6.51,5.17,10.15,4.81,15.38-1.82,4.87-6.18,9.59-12.48,14.45-18.66,3.3-4.21,6.93-8.78,13-6.77,6.34,2.11,14.21,3,14.93,12.29.23,2.92,2.31,4.57,4.48,6.14a31.46,31.46,0,0,1,9.27,10.33c2.1,3.81,3.29,7.45.13,11.33-2.86,3.52-2.45,7,.64,10.19,2.53,2.61,2.56,5.44,1.94,8.87-2.58,14.09,2.55,20.48,16.69,22.75,8,1.27,16.21,2,23.4,6.5,4.12,2.57,6.32-.09,8.26-3.49,4.92-8.57,12.66-12.06,21.85-10.07,5.51,1.19,6.75,3.81,3.86,8.68-1.58,2.68-4.69,5-1.53,8.4,2.87,3,6.44,4.12,10.33,2.13,6.42-3.29,11.59-1.75,16.57,3.16a18.11,18.11,0,0,0,13.4,5.54,11.63,11.63,0,0,1,8,2.91c4,3.29,4.35,3.15,6.5-1.86,1.54-3.62,3.3-6.6,7.17-8.29,8.24-3.59,13.5-1.12,15.56,7.61a12.72,12.72,0,0,1,0,6c-2.5,10.32-1.63,11.71,8.7,14.11,9.37,2.18,19,3,28.36,5.26,6.83,1.62,13.13.61,16.84-7.15,2.46-5.15,7.34-6.12,12.67-3.62s8.78,6.52,9.37,12.72a27.56,27.56,0,0,0,8.3,17.86c1.24,1.19,2.66,2.62,3.06,4.18,1.64,6.34,6.36,10.3,10.57,14.73,6.38,6.71,6.41,7.73-.08,14.13-2.39,2.36-4.21,4.77-4.32,8.24-.14,4.61-3,6.66-7.16,7.41a11.94,11.94,0,0,0-5.61,2.27c-5,4-4.53,8.57,1.38,11.31,2,1,5,.87,4.92,4-.11,3.46-.19,7.13-3.78,9.24a13.35,13.35,0,0,1-1.56.78c-3.13,1.33-6,3-5,7.06.86,3.75,3.56,5.87,7.22,6.83a3.18,3.18,0,0,0,.86.16c9.17-.26,14.23,3.92,14.71,13.34.11,2.15,1.64,3.7,3.46,4.81a53.85,53.85,0,0,1,20.19,21.29c.92,1.76,2.63,3.11,4,4.59a37.31,37.31,0,0,1,8,13.43c3.16,9,5.14,18.65,13.35,25,1.22.94,1.78,3-.16,3.45-5.76,1.24-2.63,3.5-.93,5.73,1.32,1.74,2.07,3.56.55,5.58a5.1,5.1,0,0,1-5.42,2c-1.14-.22-2.25-.61-3.39-.88-3.71-.88-5.81-.59-6.06,4.4-.55,11-6.38,20.63-11.06,30.13-2.94,6-11.32,7.59-17.86,10a4,4,0,0,1-1.71.32c-11.53-1.37-18.19,4.72-22.53,14.52-.58,1.31-1.77,2.33-2.48,3.59-7.46,13.16-19.39,18.29-33.83,20.2-10.89,1.45-20.22-2.17-29.29-6.71a25.07,25.07,0,0,0-16.92-2.11c-5.42,1.09-6.79,3.38-5,8.66,1.19,3.53.93,6.78.41,10.29-1.15,7.83-.73,8.29,6.64,10.21a13.77,13.77,0,0,1,3.32,1,3.11,3.11,0,0,1,1.29,2c.15,1-.69,1.48-1.55,1.83-2.55,1-6.6.12-7.13,3.86-.61,4.32,2.14,7.61,4.95,10.71,7.24,8,14.31,16,20.17,25.15a16.39,16.39,0,0,1,2.68,12.44c-1.35,7.11-1.7,14.36-4.92,21.17s-2.52,13.56,1.92,19.91c5.7,8.15,8.5,17.9,14.13,26.13a9.57,9.57,0,0,1,1.28,5c.22,11.64-3.32,21.78-12.36,29.58a13.09,13.09,0,0,1-6.12,3.24c-3.21.61-5.23-.82-5.38-4a13.59,13.59,0,0,1,1-5.95c3.12-7,2.41-14.37,2-21.57-.53-9.1-6.87-12.26-14.5-9-6.29,2.71-10.19,7.6-14.81,11.93-1.49,1.4-1.11,3.18.71,4.4,1.21.81,2.49,1.54,3.61,2.46,1.35,1.11,2.81,2.45,2.47,4.35-.38,2.13-2.41,2.2-4.15,2.4-2.24.27-4.72-.07-6.36,2.76,7.65,6.82,7.64,16.2,7.72,25.26.07,7.66.11,8.11,7.36,5.71,5.05-1.68,7.46-.28,7.19,4.95-.18,3.62-.13,6.86,1.88,10,1.09,1.72,1.75,3.86-.18,5.59s-3.83,1-5.75.19c-3.48-1.46-6.79-3.37-10.72-3.55-6.35-.3-8.33,1.16-9.13,7.6-1.11,9-4.7,16.1-13.28,20.14a12.45,12.45,0,0,0-4.75,3.76c-3.3,4.63-7.55,6.74-13.24,7.26-5.2.48-13.61,12.86-12.81,17.84.49,3.06,3.08,4,5.37,5.27,3.6,1.94,4,3.94,1.49,7.59-5,7-3.89,12.43,3.39,16.69,4.13,2.43,5.43,5.48,5.72,9.9.48,7.5,3.28,14.54,3.58,22.27.34,8.65,10.28,14.08,18.87,11.24,7.64-2.53,13.94-1.1,20.66,3a109.16,109.16,0,0,1,21.91,17.25,29.71,29.71,0,0,1,3.42,3.95c2,3.07.65,5.54-1.76,7.65s-4,.72-6.06-.88c-10.43-8.28-12.23-7.71-19.17,3.5-3.09,5-3.61,9-.89,14.52,3,6.15,3.58,13.57,10.3,17.54,2.29,12.55,12.1,12.86,21.88,13.86,9,.92,18.06,2.33,24.16,10.35,1.88,2.48,4.13,2.24,7,1.41,9.42-2.71,13.65-.28,17,9.33a21.2,21.2,0,0,0,3.42,6,18.15,18.15,0,0,1,2.67,4.44c.62,1.63.83,3.57-.67,4.9s-3.3.46-4.81-.42a15.21,15.21,0,0,1-5.4-5.64c-4.23-7.33-11.61-8.1-18.82-9-2.72-.35-6,.81-6.2,3.66-.34,6.19-5,5.24-9.33,6,1.37,4.85.46,10,7.11,11.56,4.09,1,4.46,5.44,4.31,8.74-.18,4.16-4.4.9-6.67,2.59,3.49,3.42,7.71,4.79,12.13,5.89,3.37.85,7,1.63,7.94,5.81a1.6,1.6,0,0,1-1.19,2c-3.54.48-7,.33-9.88-2.23-2.43-2.11-5-4-8.63-3.34,4,5.22,21.76,15,28.09,15.45a1.72,1.72,0,0,0,.27-2.34c-1.77-2.28-3.91-4.15-1.72-7.63,2.66-4.24,4-9.55,10.36-9.86,2.8-.14,7.55,3.52,7.52,6,0,3.62-5,1.43-5.64,5.59,7.13,3,11.81,9.14,16,15.78a20.93,20.93,0,0,1,2.55,4.55c.77,2.43-.69,3-2.85,2.68-2.87-.48-4.37-2.69-6.06-4.7-2-2.33-4.36-3.88-7.56-3.68-1.53.1-3.2.37-2,2.53,1.35,2.51.48,3.75-2,4.52-4.83,1.52-4.46,5.29-2.68,8.46,2,3.59,4,7,4.14,11.22,0,.27.29.53.31.81.27,4.57,8.34,2.72,7.06,8.79-.92,4.39.77,8.37,2.61,12.38.88,1.92,1.37,3.86,3.37,4.72,9.21,4,18.79,6,28.87,5.21a1.84,1.84,0,0,0,1.85-1.55c.14-1.41-.9-2.1-2.08-2.28-3.15-.5-6.26-1.35-9.53-1-1.43.17-3.2-.11-3-2.17.2-1.67,1.79-2.14,3.26-2.44,2.5-.5,4.51.83,6.63,1.78,1.32.59,2.57,1.41,4.79.85-4.07-6.63-13.45-2.41-17.24-8.29.54-2,1.88-1.56,2.93-1.71s1.79-.4,2-1.35c.31-1.31-.55-2.19-1.54-2.83-1.79-1.17-3.88-1.07-5.91-1.26-2.23-.21-4.64.79-7.39-1.54,4.55-3.25,9.19,2.5,13.39-.78-1.21-5.08-7.46-5-9.66-9,4.49.45,16.29,5.33,22.18,9.45,7.12,5,14.24,9.25,23.39,5.1,1.91-.87,5.21-.34,5.12,1.71-.26,6.56,4.79,7,9.56,8.87a17.05,17.05,0,0,0-2.08,9c.14,1.57.23,3.78-2.08,4.22a4.74,4.74,0,0,1-4.66-1.86c-5.36-6.75-13.92-7.58-20.89-11.34-.19-.1-.54.11-1.46.33.56,2.67,5.44,3.82,3,7.68-1,1.64,1.36,2.58,2.58,2.45,7.6-.77,10.86,5.68,14.87,9.75,3.69,3.73,7.64,8.09,9.21,13.56,1.25,4.37,4.11,6.87,8.26,8.26,3.9,1.3,7.38,3.16,9.45,7.63-5.35,2.34-8.82-2-12.93-3.29-.33,3,1.69,3.49,3.08,4.33,3.59,2.17,7.16,4.27,6,9.42,6.73,6.86.41,16.48,5,23.86,1,1.67.21,3.56-1.83,4.16-10,3-9.92,12.62-13.23,20a12.12,12.12,0,0,0-.41,3.46c-.92,8.24.07,9.68,8,11.45.85.19,1.75.18,2.6.37,4,.9,5.72,3.75,6.4,7.44.61,3.28-.5,5.7-3.73,7-2.7,1.09-4.4,2.91-3.79,6.06s2.92,5.48,6,5.35c6.31-.28,10.2,3.91,14.61,7.08,3.12,2.23,3.18,5.06-.07,6.93-6.82,3.92-14.49,5.94-21.86,8.6-9.91-4.25-22.89-3.14-27.84-16.06-1.08-2.8-3.69-3.4-6.4-3.79-5.81-.86-6.13-1-4.61-5.91,1.25-4,.54-7.4-1.22-10.91-2.6-5.19-4.86-10.57-8.78-15a2.52,2.52,0,0,0-3.16-.72,2.56,2.56,0,0,0-1,2.17c2.17,7.92.07,16.43,4,24.26,1.75,3.51,2.73,6.85,6.8,8.28,4.52,1.59,6.63,6.29,10.74,8.73,1.93,1.14,1.9,5.58,3,9.28-7.63-.72-15,2.46-20.69-4.64-1.64,3.49.19,5,1.36,6.41,2.84,3.48,3.38,6.59-.47,9.71-1.45,1.17-1.64,3-1.82,4.77-.31,3.11,1.18,4.46,4.11,3.93,2-.36,3.83-1.6,5.81-1.8,3.38-.34,5.33,1.63,6.3,4.83.88,2.9-.27,4.4-3,5.24-3.78,1.18-5,4-6,7.73-1.4,5.14-3.93,5.36-7.4,1a9.18,9.18,0,0,0-5.86-3.41c-2.14,2.16,1,3.36,1,5.32,0,4.38,2.18,8.85-4.79,10.57-2.44.6-4.11,4.63-6,7.22-2.79,3.93-5.71,5.2-9.32,2.52-3.8-2.82-6.5-4.61-10.07.26-1.84,2.51-5,1.84-6.86-.43-2.65-3.28-5.67-3.52-9.37-2.6-4.23,1.06-8.53-2-12.83-.14-.56,3.27,1.8,4.15,3.83,5.16,1.8.91,3.78,1.49,5.56,2.44a2.3,2.3,0,0,1,1,3,2.09,2.09,0,0,1-2.87,1.19c-2.12-.93-4.14-2.09-6.17-3.23-3.2-1.8-7-1.92-8.61,1.13-2.7,5-6.92,9.22-8,15.11-.58,3.11-1.53,5.65.9,8.88s.27,6.09-4,6c-2.32,0-4.72-.24-6.58-1.91-4.13-3.69-5.38,0-7.09,2.68-2.31,3.62-.06,5.2,2.81,6.71,2,1.07,4.65-.39,6.53,1.44-1.21,3.92-4.23,2.71-6.62,3-4.47.54-9.2-.73-13,3.31-1.76,1.84-3.61-1.08-3.13-2.23,1.9-4.51,1.66-9,.91-13.55-.21-1.26-.15-2.42,1.16-2.91,2-.75,4.35-1.41,2.36-4.13s-4.24-4.89-7.86-4.78c-.47,0-1.33.65-1.31,1,.61,7.37-8.82,8.67-9.4,15.59-.14,1.69-1.87,3.45-1,5.57,1.06,2.52.61,4.09-1.93,5.76s-1.88,3.89,1,5.13,6.15,1.16,9.38,1.3c5.09.23,1.27,2.71.59,4.32Zm125.33-234.64c2.87.42,5.75.83,8.63,1.27,1.23.19,2.38,0,2.93-1.19.79-1.69-.42-2.6-1.55-3.59-2.17-1.91-5.79-1.51-8.66-5.43,6.09,1.08,10.6,2,15.15,2.67,5.19.81,6.23-.27,5.89-5.38-.16-2.46-1.42-4.28-2.61-6.31-3.78-6.51-9.84-10.66-15.58-15a16.46,16.46,0,0,0-18.8-1c-3.51,2-6.18,3.91-10.23,2a2.57,2.57,0,0,0-3.58,1.56,2.67,2.67,0,0,0,1.66,3.56c5.07,1.61,5.38,7.29,9.32,9.93-3.23.17-6.09-.34-9-.41a60,60,0,0,0-8.68.54,3.32,3.32,0,0,0-.64,6.57c2.75.84,5.56,1.52,8.81,2.39-2,1.75-4.92,0-6.74,2.55a30.48,30.48,0,0,0,13.85,4.36c1.69.12,4.71.11,4.94-.57,1.67-5,4.32-2.51,7-1.37s5.4,2,8.14,3c-1.44.07-3.78-.37-4.17.3-2.94,5.11-6.74,2.57-10.54,1.71-2.5-.56-5.29-2-8.72.84,12.89,6.33,25.17,9.54,40.1,5.89C1566.92,1365.39,1562.42,1361.27,1557.09,1358.53Zm-686.68,429.6-.25-.19c0,1.17.43,2.53,0,3.47-3,6.24-.52,10.53,4.63,14,2.5,1.71,4.44,3.56,3.28,7.2-.88,2.75,1.32,4.27,3.51,5.3,4.59,2.15,9.29,2.06,13.22-1.13,5-4.06,9.2-8.79,10.28-15.65,1.41-9-2.68-16.26-11.36-18.7a70.13,70.13,0,0,1-8.09-3.2c-4.81-2-9.21-5.26-14.53-5.84a19.46,19.46,0,0,1-10.24-4.36c-3.21-2.52-6.71-4.68-10.9-5.28a3,3,0,0,0-3.07,1.19c-.75,1.15-.21,2.25.56,3.17s1.63,1.68,2.38,2.57c1,1.12,2,2.39,1.37,3.91-.91,2.26-2.82,1.37-4.47,1-.57-.11-1.14-.26-1.71-.36-1.18-.19-2.42-.26-3.21.81-1,1.41-.31,2.71.48,4C846.44,1786.75,862,1791.18,870.41,1788.13Zm343.84-873c6.59-7.68,13.11-8.81,19.82-9.58,8.2-1,16.31.31,24.45.72,9.18.47,10.15-.53,8.39-9.83a100.92,100.92,0,0,0-5.25-19.34c-4.73-11.66-13.06-18.55-24.83-17.83-12.57.78-24.11-2.11-35.21-7.6a11.41,11.41,0,0,0-7.56-1.19c-6.19,1.17-6.07,1-7.63-4.65A18.5,18.5,0,0,1,1188,831.5c3.45-6.7,6.74-13.42,10.68-19.91,7.62-12.55,14.68-16.32,26.16-13.9a14.14,14.14,0,0,0,2.58.34,2.5,2.5,0,0,0,2.88-2.56c0-6.06.85-12.2-4.25-17.2-7.66-7.53-14.42-15.69-18.85-25.78-2.54-5.79-5-11.08-2.6-17.46,1.58-4.15.15-7.1-3.69-9.51a19.92,19.92,0,0,1-9-12.45,13.33,13.33,0,0,0-3.61-5.89,68.88,68.88,0,0,1-10-13.21,21.55,21.55,0,0,0-11.9-9.79c-12.37-4.42-24.22-9.86-33.87-19.17a19,19,0,0,0-5-3.53c-17.16-8.08-33-20-53.34-19.13a9.26,9.26,0,0,1-2.58-.45c-15.76-4.17-31.66-7.46-48-8.7-3-.23-5.17.26-6.49,3-.92,2-2.07,3.47-4.55,3.36-8.74-.36-17.66.35-26.15-1.27-9.53-1.81-16.26.74-22.1,8-2.87,3.57-6,7-11.65,6.28s-5.87-.36-6.46,5.48c-.54,5.43-1.58,10.78-7.86,12.25-5.65,1.32-10.06,4.43-14.29,8.08s-9.8,7.9-14.73,6.6c-8-2.1-9.15,2.52-11.39,7.49a16.94,16.94,0,0,0-2,6.63c-.07,4.54-2.69,6.85-6.74,8-2.81.77-5.62,1.57-8.46,2.21a11.91,11.91,0,0,0-5.49,2.52c-3.62,3.19-3.19,6.3,1.34,7.55,4.2,1.16,8.57,1.67,12.83,2.63,1.86.41,4.12.75,3.51,4.77-5.47-2.27-9.64,0-14.34,2.86-6.92,4.26-11.23,11-17.31,15.9-3.84,3.12-3.81,7.69-2.89,12.13.41,2,1.58,3.77,2.08,5.73,2.19,8.54.36,10.65-8.2,9.86-8-.74-14.43,1.77-18,9.3s-6.75,15.45-10,23.22a7.69,7.69,0,0,0-.54,3.42c.49,6.39-1.59,12.31-4.48,17.6-3.64,6.67-4.43,13.79-5.53,21-.3,2-.16,4.13-.7,6.06-1.2,4.38-3.41,5.35-7.84,3.82-7.3-2.53-8.79-1.8-12.92,5.35-2,3.4-2.15,5.92,1.91,7.71a20.23,20.23,0,0,1,9.57,8.66c.93,1.62,1.56,3.66-.59,4.45-4.48,1.65-8.7,5.29-14,2.36A12.13,12.13,0,0,0,785,885a4.67,4.67,0,0,0-5.16,2.45,4.11,4.11,0,0,0,.72,4.84c1.2,1.43,3.66,2.29,2.43,4.92-1.46,1.32-3.32,1-5,1.35-6.79,1.36-11.95,9.75-7.89,15,5.39,6.92,3.31,13.89,2.74,20.85a35.69,35.69,0,0,0,1.54,13.53c2,6.81,3.76,14.16-.37,21.15-3.37,5.72-1.58,11.33.81,16.76,5,11.44,7,23.43,5.14,35.69-1.65,10.8,2.75,20.64,3.5,31,.12,1.58,1.39,3.21,2.44,4.58a74.2,74.2,0,0,1,13.2,28.27c1.2,5.07,2.66,9.43-1,14a5.54,5.54,0,0,0-1,4.09c1.69,8.49,1,17.56,5.86,25.28s3.44,15.74,0,23.4c-1.63,3.66-2.66,6.94-1.25,10.83,1.12,3.12.11,5.66-2.65,7.59-7.18,5-8.28,12.14-6.86,20.12,1.06,6,2.83,11.92,1.64,18.18a9.84,9.84,0,0,0,.9,5.08,127.37,127.37,0,0,1,5.67,20.2c1.47,6.84,4.44,12.32,10.15,16.73,5.14,4,8.82,9.3,8.5,16.45-.18,4.12,2.39,6.91,4.87,9.9,11.88,14.34,26.17,26.55,36.88,41.93a28.58,28.58,0,0,0,7.6,7.12c7.7,5.23,15.34,10.57,22.63,16.36,9.87,7.84,19.65,15.57,33.2,15.37,3.32-.05,5.21,1.08,5.79,4.92,1.08,7.11,1.67,7.38,9.07,6.83,3.71-.27,6.78,0,9.18,3.45A32.14,32.14,0,0,0,969,1386.46c4.39.89,8,3,11.94,5,8.51,4.37,14.82,11.28,21.69,17.48,4,3.58,8,5,12.71,3.31a23,23,0,0,1,14.6-.19c4.66,1.43,8.69.25,12.34-2.47,2.93-2.18,6.12-2.26,9.54-2.92,8.68-1.67,17.82-2.92,25.11-8.83,8.92-7.23,9.66-7.4,20-1.88,2,1,3.46,1.5,5.59.2,9.65-5.88,9.7-5.81,15.12,3.35.3.5.49,1.07.8,1.56,1.43,2.25,3.33,3.55,5.74,1.6,2.22-1.8.69-3.6-.51-5.32-2-2.86-4-5.7-5.75-8.7a2.87,2.87,0,0,1,.69-3.94,3,3,0,0,1,3.29.21,6.32,6.32,0,0,1,2.08,1.57c5.2,7.24,13.1,6,19,3.48,5.28-2.29,14.58-2.14,14-12.27-.12-2.23,2.76-3.6,4.7-4.87,3.22-2.11,6.68-1.19,10.17-.77,5.65.67,6.72-.18,7.62-5.67.46-2.86-.2-6.77,2.34-8.12,6.72-3.55,3.83-8.47,3.1-13.45s-3.61-6.8-8.29-7.15a60.25,60.25,0,0,1-21.14-5.19c-7.94-3.71-17-3.18-24.79-8-7.15-4.4-12.28-11.75-20.93-13.94-2.18-.55-4.58-2-3.79-5,.61-2.29,2.9-2.53,5-2.9,7.43-1.33,14.85-2.57,22.24-4.3,6.65-1.56,13.64-3.41,20.44-3.39,6.47,0,12.7-1.44,19.11-1.43,2.45,0,5.26-.34,6.42-3.24-1-1.88-3.05-1.94-4.36-3.07-1.88-1.61-3.24-3.57-2.6-6.09.75-2.9,3.11-4.1,5.92-4.37a22.66,22.66,0,0,1,3.48.17c6.18.37,10.71-2.75,13-9,1.78-4.87.53-9.66-4.6-12.9-9.13-5.76-18.49-10.93-30.09-9.9a83.52,83.52,0,0,1-31.89-3.77c-16.84-5.23-32,.18-46.14,7.13-8.24,4-15.51,5.46-24.1,4.16s-17.39-2-25.83,1.65a11.57,11.57,0,0,1-10.18-.44c-3.55-1.84-6.76-1.29-9.9.74a18.31,18.31,0,0,1-11.69,2.82c-2.55-.2-3.71-1.89-2.27-4.29a37.47,37.47,0,0,1,3.85-4.74c1.78-2.11,3.38-4.75,2-7.18-2.86-5.15-.15-10.57-1.51-15.77-.9-3.42.17-5.85,4.7-6.4,3.31-.4,6.38-2.67,9.58-4.07,1.57-.68,2.21-1.64,1.58-3.4-1-2.93-1.77-5.36-6-3.19-2.75,1.42-3.6-1-2.93-3.38,1.11-3.91,4.35-6.66,7.84-5.08,6.45,2.92,13.26-.32,19.62,2.33,3,1.27,6.5.69,8-3.12,2-4.85,6.07-5.9,10.6-6.28,2.9-.24,5.81-.4,8.72-.54,3.09-.14,5.78-.55,6.27-4.52.37-2.94,3-5.61,5.27-4.87,7,2.32,14.51-1,21.37,3,4.5,2.61,8.19-.13,6.41-4.76-2.44-6.35,5.58-8.61,4.25-14.11-.11-.46,2.43-.78,3.1,0,3.81,4.32,8.61,2.28,13.1,2.4,3.71.09,5.67-.94,7.87-4.66,5.59-9.47,11-10.37,19.43-5.08s8.47,5.29,11.57-4.2c6,1.4,9.64,6.81,15.15,9.61.44-6.9,1.56-12.58,5.35-17.88,5.42-7.6,1.93-14.24-7.57-14.51a39.06,39.06,0,0,1-19.83-5.84c-4.73-2.9-5.53-5.36-3-10,1.35-2.52,4-4.81,1.51-7.79a10.62,10.62,0,0,0-9.44-3.63c-4.15.4-7.83,2.26-11.48,4.07-3.43,1.7-6.88,3.21-10.72,3.59-1.76.17-3.6.21-4.6-1.65s.09-3.42,1.2-4.76a68.85,68.85,0,0,1,19.62-15.85c6.32-3.54,12.87-3.37,19.43-1a31.44,31.44,0,0,1,11.64,7.59c1.83,1.85,3.5,4.44,6.15,4.72,11,1.18,22.17,2.64,31.56-5.51,2.89-2.51,5.82-4.94,9.72-5.58,3.08-.51,6.27-.11,7.13,3.38,2.37,9.68,4,19.45.67,29.3-2.89,8.44-5.56,17.08-17.56,14.77a2.48,2.48,0,0,0-2.81,1.63,2.18,2.18,0,0,0,1.48,2.74c3.7,1.68,5.15,5.39,7.69,8.12,4.65,5,9.12,10.2,14.75,14.38,6.89,5.11,15.45,6.74,22.21,12,5.86,4.58,6.48,4.2,11.8-.53a13.57,13.57,0,0,0,4.75-8.09,17.73,17.73,0,0,1,2.94-7.24c8.66-12.34,13.57-26.36,17.3-40.73a382.08,382.08,0,0,0,8.86-48c2.37-18.68,2.36-37.27-1.58-55.68-1.94-9.06-3.89-18.5-9.91-25.86-7.2-8.79-11.85-18.69-15-29.38-1.77-6-5.69-9.77-11.47-10.69-10.14-1.61-19.06-7.15-29.23-8.43-1.56-.2-2.87-.88-3.09-2.54-.25-1.85,1-2.72,2.65-2.72,5,0,5.21-2.45,3.46-6.17a11.13,11.13,0,0,1-1.13-3.3C1230.27,919.24,1226.63,913.2,1214.25,915.08ZM904.19,1581.8c-2.16,7.77-2.26,7.88,3.67,13.1,3.22,2.84,7.07,7.36,5.48,10.13-3.7,6.47.72,9.66,3.26,13.84,1.91,3.14,4.6,4.43,8.14,2.57,4-2.08,6.59-.39,8.86,2.86a33.8,33.8,0,0,0,3.43,4c9.66,10.17,21.3,12.2,33.72,5.83a37.41,37.41,0,0,1,7.45-2.4c8.44-2.3,15.88-5.84,18.29-15.41.68-2.69,2.94-4.28,5.11-5.78,4.75-3.3,8-7.45,8.77-13.45.38-2.81,1.93-5.46,3-8.19,2-5.26,1.74-6.74-3-9.16-3.13-1.59-5.23-3.41-5.93-6.91-.28-1.36-.86-3.27-1.89-3.78-7.2-3.65-11.07-11.74-18.19-14.77-10-4.27-12-12.66-14.09-21.48-.45-1.92.3-4.27-1.71-5.58-3.24-2.11-3.79-5.64-5.24-8.79-4.74-10.3-13.5-16.8-23.34-21.09-7.69-3.35-15.69-6.06-23.28-9.77-3.73-1.82-6.37-3.88-6.67-8.26a10.53,10.53,0,0,0-5.18-8.68c-5.74-3.44-11.59-6.71-17.43-10-3.61-2-6.52-1.56-8.9,2.2-2.17,3.44-3.3,6.55-.89,10.48s4.68,6.75,9.73,4.82a3.09,3.09,0,0,1,2.5,0c5.55,4.53,12.7,5.81,18.69,9.33,3.66,2.14,5.22,6.11,3.52,9.85-2.73,6-8,11.13-5.88,18.7.09.34-.6,1-1,1.38-3.83,4-3.84,8.11-.8,12.64,2.28,3.4.51,5.89-2.25,8.22s-4.71,6.07-9.52,3.59c-7-3.59-14.57-6-21.08-10.51-2.39-1.67-4.85-3.35-8.16-1.49-.38,2.7,4.5,5.57,0,8.21-3.18,1.88-6.37.68-9.39-3.53-1-1.42-1.92-2.92-3-4.23-.77-.9-2.71-1.51-2.91-.45-1.22,6.81-7.22,3.86-11.07,5.11,4.53,11.26,9.43,14.16,20,11.49,3-.76,5.14-.29,7,1.82,2.82,3.17,6.3,3.71,10.31,3.3,3.76-.37,7.61-.46,11.22,1,4.36,1.81,5.25,4.08,3,8.09a75,75,0,0,1-5.32,8c-2,2.69-2,5.26-.49,8.13s3.89,4.29,7.17,3.63C894.5,1579.45,898.93,1581,904.19,1581.8Zm582.1,855.77c15.26-1.91,33.46-4.33,51.71-6.37,6.53-.73,9.93-3.94,11.12-10.24,1.56-8.31,3.34-16.58,5.15-24.84,1.18-5.41,5.27-10.24,4.81-15.78-1-11.86,6.11-16.62,15.64-19.78a26.83,26.83,0,0,1,3.35-1c4-.8,5.62-3.31,6.42-7.2,1.93-9.46,3.28-18.93,3-28.61-.14-4.94-1.06-10.23,1.08-14.72,3.84-8,2.08-16.68,3.81-24.9a6.52,6.52,0,0,0-3.51-7.4c-7.88-4-22.78,2.85-24.21,11.63-2,12.29-4.79,24.58-2.84,37.22a26.71,26.71,0,0,1-.15,7c-1.41,12.49-4.58,15.88-17.09,18.49-.85.18-1.73.25-2.58.45-13.66,3.35-27.85,2.51-41.59,5.34-11.41,2.34-23.06,3.52-34.28,6.81-7.8,2.28-8.82,4.15-6.66,12.06,1.38,5.06,2.48,10.33,4.76,15,6,12.3,8.63,25.29,9.56,38.8C1474.29,2436.43,1476.35,2438,1486.29,2437.57ZM1300,2421.41c11.18-5.08,15.39-13.78,17.88-23.65.07-.28.3-.51.39-.78,2.56-7.07,6.19-12.5,15.09-11.48,2.57.3,4.5-1.19,3.31-4.48a25,25,0,0,1-.79-4.26c-.83-4.92-4.06-6.58-7.58-3.2-4.56,4.38-9.73,8.24-12.69,14.24-3.63,7.37-6.44,15.19-14.19,20-7.49,4.67-15.33,4-20.49-3.18-2-2.82-3.49-6.34-6.12-8.38-5.66-4.38-9.87-9.86-13.84-15.61-2.39-3.46-5.78-5.7-9-8.17-2.36-1.81-4.83-1.78-5,1.57a145.72,145.72,0,0,0,1.55,30.3,3,3,0,0,0,.8,1.53c7.31,7.34,13.2,16.6,24.62,18.39,4.13.65,6.73,3.12,8.67,6.62a42.18,42.18,0,0,1,3.55,8.9,58.73,58.73,0,0,0,10,20.24c5.49,7,10.3,13.76,9.55,23.53a11.54,11.54,0,0,0,8.75,11.71c2.16.43,3.91.24,4.51-2.59a33.38,33.38,0,0,0-4.33-24.86,37.17,37.17,0,0,1-6.62-22.66C1308.11,2437,1308.25,2428.67,1300,2421.41ZM1154.07,1213.58c5.69-.38,11.44.85,17,2.34,11.28,3,20.13-3.41,29.68-7.13,1.27-.49,2.26-1.83,3.22-2.92,3.52-4,3.32-5.95-1-9.29-6.88-5.33-14.72-5.1-22.48-3a23.41,23.41,0,0,1-10.19.47c-11.07-1.76-22.11-4.81-33.37-.07-3.23,1.36-6.76,1.54-8.33,5.32a5.67,5.67,0,0,1-3,3c-6,2.7-21.51,3.88-28.39,2.1-5.63-1.46-6.59-1.33-7.08,3.78-.31,3.3-1.69,4.11-4.16,4.19-8.86.28-13.15,6.58-17.42,12.93-1,1.42-2.3,2.94-1.07,4.75,1.36,2,3.39,1.69,5.51,1.32a613.84,613.84,0,0,0,66.2-15.69A47.44,47.44,0,0,1,1154.07,1213.58ZM780.52,1434.15c2.43,4,3.45,9,7.05,12.36,5.47,5.07,12.23,9,13.88,17.11a2.34,2.34,0,0,0,1.17,1.24c4.66,2.56,8.26,6.2,11.65,10.27,2.35,2.82,5.51,2.89,8.32,0a17.58,17.58,0,0,0,1.34-23c-3.56-4.76-7.69-8.62-13.29-10.84-9.33-3.69-19.16-5.54-28.84-7.92C781.61,1433.3,781.33,1433.63,780.52,1434.15Zm57.68,407.46c7.08-2.26,9.43-9.62,16.44-10.75,2.17-.35,1.77-2.65.79-4.31s-2.77-2-4.23-2.93c-8.06-5-17.57-3.44-26.22-5.74a2.66,2.66,0,0,0-2.18,1c-.8,1.18,0,2.19,1,3,4.3,3.75,7.3,8.49,11,13.1-8.5,2.31-8.81,3.11-4.79,10.69a5.61,5.61,0,0,1,.62,1.47c-4.82,3.12-2.35,11.2-8.91,13.1-2.63.76-3.87,2.21-2.94,5.18.82,2.61-.37,5.15-.87,7.71a7,7,0,0,0,1.11,5.83c1.52,2,3.44,3.31,6,2.39,2.16-.77,1.37-2.61,1.47-4.35.28-4.84,3.32-8,8.12-8.31,2.73-.17,5.43.24,6.6-2.82,1.32-3.44-2.15-4.33-3.73-6.15-3.79-4.34-3.5-5.7,2-8,6.39-2.67,6.38-2.66,1.15-7A23.34,23.34,0,0,1,838.2,1841.61Zm32.56-10.17c2.28-.44,5.35.33,5.51-3,.12-2.39-2.16-3.2-4.22-3.67-1.13-.26-2.32-.3-3.43-.62-3.12-.9-4-2.74-1.11-4.73,3.63-2.46,2.76-5,1.32-8.22-3.86-8.77-11.71-12.7-19.7-16.14-3.58-1.55-7.6-3-11.83-2.48-1.18.14-2.35.34-3,1.44a2.84,2.84,0,0,0,.92,3.87c2.9,2.23,5.43,4.89,4.95,8.68-.88,6.78,3.37,9.4,8.48,11.38,4.15,1.62,7.59,3.61,10.11,7.68S866.07,1831.08,870.76,1831.44ZM636.49,1178.32c5.41-.42,11.75.79,15.18-4.51a39.1,39.1,0,0,1,9.78-10.89,2.53,2.53,0,0,0,.87-2.22c-.55-1.32-2-1.21-3-.67-3.56,1.91-6.79,3.78-11.38,3.06-7.36-1.16-14.38-2.23-18.84-9.19-1.2-1.88-3-2.6-5.19-1-6.76,5.12-7.11,15.14-1.08,21.15C626.79,1178,631.4,1178.61,636.49,1178.32Zm135.09,237.52c1,3.15,1.74,5.91,2.75,8.58,2.16,5.69,13.74,8.71,18.17,4.42a5.65,5.65,0,0,1,6.12-1.71c2.49.6,5.08.28,5.3-2.78.2-2.79-2.35-3-4.43-2.78-4,.41-6.59-1.54-8.61-4.75a7,7,0,0,0-7.51-3.36C779.69,1414.13,775.76,1413.53,771.58,1415.84ZM220.07,643.23c.08-8.22-11.34-20.42-18.78-20.92a3.73,3.73,0,0,0-3.74,1.67,2.73,2.73,0,0,0,.92,3.84c5.17,3.33,7.92,8.26,9.9,13.86a36.15,36.15,0,0,0,3.2,6.17c1.1,1.84,2.66,3.17,5,2.59s3-2.54,3.31-4.62A21.08,21.08,0,0,0,220.07,643.23ZM1480.65,683c.16-1.92.19-4.23-2.2-5.64s-4.25-.62-6.38.73c-4.24,2.67-7,6.62-10,10.44-1.35,1.74-2.34,3.43-.77,5.37s3.75,1.77,5.57.95c3.89-1.76,7.22-4.54,11.24-6.17C1480.05,687.84,1480.23,685.39,1480.65,683Zm-3.4,43.7c6.82,1.09,11.19-3.34,15.94-6.66,2.45-1.71,4-4.4,1.87-7.43-1.6-2.25-5.5-1.61-8,2C1484.17,718.77,1480.56,722.33,1477.25,726.65ZM1463.6,670.9c-3.4-2.76-6-5-8.73-7a7.14,7.14,0,0,0-8.13-.79,3.6,3.6,0,0,0-1.89,4.39c.91,3.17,3.37,4.65,6.46,4.86C1455,672.57,1458.76,673.13,1463.6,670.9Zm-411.45,535.89a30.71,30.71,0,0,0,1.3,4.11c1.11,2.46,3.24,3.1,5.76,2.64,2-.36,4.34-.39,4.71-2.92.4-2.71-2-3-3.85-3.76-2.39-1-1.78-2.5-.53-4.1s1.5-3.22-.57-4.25c-1.74-.86-3.42-.2-4.73,1.08C1052.47,1201.32,1052.09,1203.59,1052.15,1206.79ZM468,1808.57c-1.64.21-3.66-.19-4.39,1.84s.73,3.27,1.87,4.48c3.08,3.25,8.39,3.8,11.74,1.37,2.4-1.75,2.43-4-.13-5.4A22.25,22.25,0,0,0,468,1808.57ZM915.78,341.74a46.11,46.11,0,0,1,11.68,8.89,10.53,10.53,0,0,0,6.16,2.9c1.23.21,2.41-.18,2.71-1.46a2.75,2.75,0,0,0-.67-2.29C929.9,345,924,340.52,915.78,341.74ZM1478.4,456.61c-3.13,0-6.88,3-7.09,5.54-.23,2.7,3.3,6.41,6,6.08,3.53-.41,4.56-3.17,4.79-6.16C1482.35,459.29,1481.56,456.91,1478.4,456.61Zm-331.84,729.17c-.16-4.47-3-9.27.39-13.68.47-.62-.07-1.75-.93-2.18a2,2,0,0,0-2.83,1.07c-.94,1.77-1.49,3.8-3.32,4.94-4,2.48-3.62,4.79.27,6.88C1142.06,1183.84,1143.11,1186.56,1146.56,1185.78ZM385.14,448.69c2.82.76,6,.82,8.27,3.34,2.55,2.79,3.95-.17,5.15-2,1.43-2.12,1.82-4.42-.88-5.89s-5.62.23-8.48,0C387,444.08,385.71,445.87,385.14,448.69ZM151.63,772.55c-1.71.25-3.65.39-3.16,2.92.46,2.35,6.59,6.62,9.41,6.7a2.33,2.33,0,0,0,2.6-1.74c.57-2.21-3.6-6.64-7.13-7.62A14.78,14.78,0,0,0,151.63,772.55ZM1478.36,476.11c-2.78,0-8.39,3.52-8.34,5.34.08,2.74,2.23,3.2,4.29,3,3.18-.32,6.53-.93,7-5A3,3,0,0,0,1478.36,476.11ZM448.62,457.47a10.2,10.2,0,0,0-.55-1.87c-1.68-3-8.77-6.16-11.3-4.89a2.86,2.86,0,0,0-1.35,2c-.1,2.73,4.84,6.27,9.21,6.7a5,5,0,0,0,2.53-.2C447.82,458.89,448.2,458,448.62,457.47Zm25.11,1349.19a22.62,22.62,0,0,0,3.69-.86c1.16-.45,1.89-1.8,1-2.73-2-2-4.32-3.94-7.4-3.72a4,4,0,0,0-3.82,4c-.1,2.08,1.81,2.69,3.52,3.08A21.53,21.53,0,0,0,473.73,1806.66Zm1048.78-495.88c-4.09-2.56-7.37-4.77-10.82-6.68-1.68-.94-4.12-2.25-5.18.5-.93,2.39,1.32,3.76,3.23,4.38C1513.5,1310.2,1517.19,1312.38,1522.51,1310.78Z"/><path d="M1641.9,1376.45c-.84,4.14-1.68,9.63-3.11,15-1.52,5.63-3.4,11.14-3.92,17-.29,3.35-2,6-4,8.55-1,1.18-2.18,2-3.76,1.47a3.13,3.13,0,0,1-1.93-3.56c.6-5.2.63-10.62,2.27-15.48,1.75-5.19,1.7-10-1-14.2-2.46-3.81-2.13-6.48,0-10.23,3.34-5.86,2.9-7.48-1.58-11-2.24-1.76-4.34-3.3-2.52-6.36,1.58-2.68,7.14-4.12,9.32-1.95C1637,1361,1641.9,1366.79,1641.9,1376.45Z"/><path d="M1636.76,1449.05a58.73,58.73,0,0,1-.51,7.13c-.57,3.15-2.88,4.2-5.84,3.47-3.39-.84-4.09-3.45-2.46-6,2.94-4.55,3.72-8.86,1-13.73a3.16,3.16,0,0,1,1.2-4.52c2.26-1.18,3.91.16,5,2C1637.14,1440.86,1636.44,1444.72,1636.76,1449.05Z"/><path d="M1431.52,1593.4c3.31,1.11,6.6,2.27,9.93,3.31,3,.91,5.21,2.41,6.15,7-6.31-3.08-12-1.78-17.76-.71a14,14,0,0,1-3.48.13c-1.19-.07-2.56-.52-2.67-1.78-.2-2.1,1.54-1.93,3-2,5.44-.29,5.44-.3,5.09-6.15Z"/><path d="M1418.48,1638.65c-6.57,4.68-8.43,5.52-13.72,6.46C1406.72,1638.93,1409.77,1637.32,1418.48,1638.65Z"/><path d="M1566,1476.14c1.77.43,2,1.88,2,3.31-.06,3.52-2,5.24-5.46,5.09-1.79-.07-3.47-.71-3.58-2.87C1558.91,1480.05,1564.18,1476,1566,1476.14Z"/><path d="M936.5,839.94,952,828.33c-.84-1.12-1.07-1.56-1.17-1.53-9.07,2.31-18.49,1.56-27.55,5.85s-17.46,10.27-27.56,12.76a28.68,28.68,0,0,0-16.93,11.5c-5.68,7.94-18.05,9.64-26.85,5.48-7-3.31-15-4.42-21.18-9.78-3.14-2.72-6.19-5.34-7.47-9.43-2.29-7.3.94-12.29,8.34-11,9.78,1.74,16.59-2.66,24-7.77,6.89-4.76,14.39-8.89,22.7-10.92,4.35-1.06,8.35-2.57,11.43-6s7.7-3.94,12-4.67c7-1.19,13.25-3.31,19-8.09,8.14-6.8,25.19-6.47,33.72-.13,5.45,4.05,10.7,7.4,17.17,1.92,1.36-1.15,3.29-1.16,5-1a121.77,121.77,0,0,0,32.16-2,17.34,17.34,0,0,1,7.82,0c10.19,3.15,21.21,3.17,30.89,8.18,1,.53,2.3,1.34,3.24,1.11,11.19-2.7,14.55,7.14,19.42,13.07,5.69,6.93-.3,16.46-9.78,15.67-17.78-1.47-35.44,2-53.22.51-6.25-.52-12.7.68-19.12.35-4.37-.22-8.49,1.67-12.67,3a146.59,146.59,0,0,1-38.2,6.55Zm2.17-27c-.16-1.86.91-4.7-2.17-4.57a7.57,7.57,0,0,0-6.43,5c-1,2.74,2.22,3.78,4.22,4.24C937.94,818.49,938.38,815.62,938.67,813Z"/><path d="M995.05,894c-6.5-1.59-12.47-6-19.77-2.48-1.12.54-2.87-.35-4.29-.2-2.48.26-8-3.6-5.67,3.84.09.28-.6,1.06-1,1.18-6.9,1.92-11.14,8.46-18.14,10.3-3,.79-5.92,2.09-7.73,5.22-3.93,6.78-10.79,9.45-18.12,7.15-5.71-1.78-11-5.05-18.64-4.13,4.29-6.3,9.49-8.88,14.74-10.83,14.74-5.48,29.19-11.84,44.48-15.75,17.46-4.47,35-5.94,52.71-1.23,12.22,3.25,21.82,9.46,25.71,22.36.74,2.49,2.36,4.69,3.27,7.14,3.14,8.48,2,13-5.61,17.94-5.56,3.6-11.32,6.3-18.75,3.32-6.12-2.45-12.94-3.34-19.29-5.53-3.56-1.22-6.28-3.11-6.63-7.21s-3.22-6.79-4.58-10.3a57.1,57.1,0,0,1-2.92-8.19c-1.52-7-1-7.53,6.05-9.68C992.4,896.41,994.49,896.81,995.05,894Z"/><path d="M1100.27,1132.81a34.66,34.66,0,0,1-11.59-1.37c-10.37-3-17.11-9.44-19.21-20.31-1-4.84-2.17-9.66-1.81-14.65.22-3.12-.27-6.74,3.78-7.92,2.87-.84,5.45,1.73,6.39,6.68.65,3.45,1.91,6.7,2.72,10.06,2.34,9.73,9.46,13.32,18.24,15,2.28.42,4.69.24,6.9.87,3.59,1,6.26,4.93,5.53,7.88-.92,3.66-4.09,3.59-7,3.76C1102.79,1132.88,1101.33,1132.81,1100.27,1132.81Z"/><path d="M870.41,1788.13a3.91,3.91,0,0,1-.56-.67c-1.24-2.34-5.47-4.16-2.84-7.17,2.24-2.58,6.06-1.46,9-.09,3.14,1.47,5.56,4,8.22,8-5.36-.44-9.83-2.86-14.05-.24Z"/></g></svg>