<svg xmlns="http://www.w3.org/2000/svg" viewBox="0 0 422.16 279.77"><defs><style>.a{fill:#fff}</style></defs><title>アセット 2</title><path d="M128.82,8H4A4,4,0,0,1,4,0H128.82a4,4,0,0,1,0,8Z" class="a"/><path d="M66.41,116.1a4,4,0,0,1-4-4V4a4,4,0,0,1,8,0V112.1A4,4,0,0,1,66.41,116.1Z" class="a"/><path d="M203.54,116.14a4,4,0,0,1-3.46-6l38.57-66.8a4,4,0,1,1,6.93,4L207,114.14A4,4,0,0,1,203.54,116.14Z" class="a"/><path d="M253.1,30.31a3.93,3.93,0,0,1-2-.54,4,4,0,0,1-1.46-5.46L262.5,2a4,4,0,0,1,6.92,4L256.57,28.31A4,4,0,0,1,253.1,30.31Z" class="a"/><path d="M173.56,116.1a4,4,0,0,1-3.47-2L131.52,47.3a4,4,0,1,1,6.93-4L177,110.1a4,4,0,0,1-3.46,6Z" class="a"/><path d="M124,30.27a4,4,0,0,1-3.47-2L107.68,6a4,4,0,0,1,6.92-4l12.86,22.27A4,4,0,0,1,126,29.73,3.93,3.93,0,0,1,124,30.27Z" class="a"/><path d="M141.42,86.36a4,4,0,0,1-3.47-2l-6.81-11.8H106.58a4,4,0,1,1,0-8h26.87a4,4,0,0,1,3.47,2l8,13.8a4,4,0,0,1-1.46,5.46A4,4,0,0,1,141.42,86.36Z" class="a"/><path d="M81.41,116.1a4,4,0,0,1-3.46-6l38.57-66.8a4,4,0,1,1,6.93,4L84.88,114.1A4,4,0,0,1,81.41,116.1Z" class="a"/><path d="M188.48,116a4,4,0,0,1-3.47-2L146.44,47.16a4,4,0,0,1,6.93-4L191.94,110a4,4,0,0,1-1.46,5.46A3.93,3.93,0,0,1,188.48,116Z" class="a"/><path d="M200.41,95.3a3.93,3.93,0,0,1-2-.54A4,4,0,0,1,197,89.3l23.17-40.14H178.93L166.65,70.42a4,4,0,1,1-6.93-4l13.44-23.26a4,4,0,0,1,3.46-2h50.43a4,4,0,0,1,3.46,2,4,4,0,0,1,0,4L203.87,93.3A4,4,0,0,1,200.41,95.3Z" class="a"/><path d="M319.46,157.4H194.63a4,4,0,0,1,0-8H319.46a4,4,0,0,1,0,8Z" class="a"/><path d="M257.05,157.4a4,4,0,0,1-4-4V45.3a4,4,0,0,1,8,0V153.4A4,4,0,0,1,257.05,157.4Z" class="a"/><path d="M321.91,193.76a4,4,0,0,1-3.46-6L373.86,91.4a4,4,0,0,1,6.93,4l-55.41,96.36A4,4,0,0,1,321.91,193.76Z" class="a"/><path d="M338.66,164.21a4,4,0,0,1-3.47-2L296.72,95.39a4,4,0,1,1,6.93-4l38.48,66.81a4,4,0,0,1-3.47,6Z" class="a"/><path d="M319.46,171.49H194.63a4,4,0,0,1,0-8H319.46a4,4,0,0,1,0,8Z" class="a"/><path d="M257.05,279.59a4,4,0,0,1-4-4V167.49a4,4,0,0,1,8,0v108.1A4,4,0,0,1,257.05,279.59Z" class="a"/><path d="M379.59,279.46a4,4,0,0,1-3.46-2l-38.57-66.81a4,4,0,0,1,3.46-6h77.14a4,4,0,0,1,3.47,6l-38.57,66.81A4,4,0,0,1,379.59,279.46ZM348,212.65l31.64,54.81,31.64-54.81Z" class="a"/><path d="M364.66,279.59a4,4,0,0,1-3.46-2l-38.57-66.81a4,4,0,0,1,6.92-4l38.57,66.81a4,4,0,0,1-1.46,5.46A3.93,3.93,0,0,1,364.66,279.59Z" class="a"/><path d="M315.11,193.76a4,4,0,0,1-3.47-2l-12.86-22.27a4,4,0,0,1,6.93-4l12.86,22.27a4,4,0,0,1-1.47,5.46A3.87,3.87,0,0,1,315.11,193.76Z" class="a"/><path d="M332.24,250a4,4,0,0,1-3.46-2L322,236.23H297.4a4,4,0,0,1,0-8h26.87a4,4,0,0,1,3.47,2l8,13.79a4,4,0,0,1-3.46,6Z" class="a"/><path d="M272.23,279.77a3.93,3.93,0,0,1-2-.54,4,4,0,0,1-1.46-5.46L307.34,207a4,4,0,0,1,6.93,4L275.7,277.77A4,4,0,0,1,272.23,279.77Z" class="a"/></svg>