<svg xmlns="http://www.w3.org/2000/svg" viewBox="0 0 421.63 279.77"><defs><style>.a{fill:#fff;}</style></defs><title>アセット 1</title><path class="a" d="M128.82,8H4A4,4,0,0,1,4,0H128.82a4,4,0,0,1,0,8Z"/><path class="a" d="M66.41,116.1a4,4,0,0,1-4-4V4a4,4,0,0,1,8,0V112.1A4,4,0,0,1,66.41,116.1Z"/><path class="a" d="M203.54,116.14a4,4,0,0,1-3.46-6l38.57-66.8a4,4,0,1,1,6.93,4L207,114.14A4,4,0,0,1,203.54,116.14Z"/><path class="a" d="M253.1,30.31a4,4,0,0,1-3.46-6L262.5,2a4,4,0,0,1,6.92,4L256.57,28.31A4,4,0,0,1,253.1,30.31Z"/><path class="a" d="M173.56,116.1a4,4,0,0,1-3.47-2L131.52,47.3a4,4,0,1,1,6.93-4L177,110.1a4,4,0,0,1-3.46,6Z"/><path class="a" d="M124,30.27a4,4,0,0,1-3.47-2L107.68,6a4,4,0,0,1,6.92-4l12.86,22.27A4,4,0,0,1,126,29.73,3.93,3.93,0,0,1,124,30.27Z"/><path class="a" d="M141.42,86.36a4,4,0,0,1-3.47-2l-6.81-11.8H106.58a4,4,0,1,1,0-8h26.87l3.47,2,8,13.8a4,4,0,0,1-1.46,5.46A3.93,3.93,0,0,1,141.42,86.36Z"/><path class="a" d="M81.41,116.1a4,4,0,0,1-3.46-6l38.57-66.8a4,4,0,1,1,6.93,4L84.88,114.1A4,4,0,0,1,81.41,116.1Z"/><path class="a" d="M188.48,116a4,4,0,0,1-3.47-2L146.44,47.16a4,4,0,0,1,6.93-4L191.94,110a4,4,0,0,1-1.46,5.46A3.93,3.93,0,0,1,188.48,116Z"/><path class="a" d="M200.41,95.3a3.93,3.93,0,0,1-2-.54A4,4,0,0,1,197,89.3l23.17-40.14H178.93L166.65,70.42a4,4,0,1,1-6.93-4l13.44-23.26,3.46-2h50.43l3.46,6L203.87,93.3A4,4,0,0,1,200.41,95.3Z"/><path class="a" d="M319.46,157.4H194.63a4,4,0,0,1,0-8H319.46a4,4,0,0,1,0,8Z"/><path class="a" d="M257.05,157.4a4,4,0,0,1-4-4V45.3a4,4,0,0,1,8,0V153.4A4,4,0,0,1,257.05,157.4Z"/><path class="a" d="M316.34,203.42a4,4,0,0,1-3.46-6L374.25,90.6a4,4,0,1,1,6.94,4L319.81,201.41A4,4,0,0,1,316.34,203.42Z"/><path class="a" d="M339.06,163.4a4,4,0,0,1-3.48-2l-38.47-66.8a4,4,0,1,1,6.93-4l38.48,66.81a4,4,0,0,1-3.46,6Z"/><path class="a" d="M319.46,171.49H194.63a4,4,0,0,1,0-8H319.46a4,4,0,0,1,0,8Z"/><path class="a" d="M257.05,279.59a4,4,0,0,1-4-4V167.49a4,4,0,0,1,8,0v108.1A4,4,0,0,1,257.05,279.59Z"/><path class="a" d="M383.06,277.46h-6.93l-38.57-66.81,3.46-6h77.14l3.47,6ZM348,212.65l31.64,54.81,31.64-54.81Z"/><path class="a" d="M364.66,279.59a4,4,0,0,1-3.46-2l-38.57-66.81a4,4,0,0,1,6.92-4l38.57,66.81a4,4,0,0,1-1.46,5.46A3.93,3.93,0,0,1,364.66,279.59Z"/><path class="a" d="M315.11,193.76a4,4,0,0,1-3.47-2l-12.86-22.27a4,4,0,0,1,6.93-4l12.86,22.27a4,4,0,0,1-1.47,5.46A3.87,3.87,0,0,1,315.11,193.76Z"/><path class="a" d="M332.24,250a4,4,0,0,1-3.46-2L322,236.23H297.4a4,4,0,0,1,0-8h26.87l3.47,2,8,13.8a4,4,0,0,1-3.46,6Z"/><path class="a" d="M272.23,279.77a3.93,3.93,0,0,1-2-.54,4,4,0,0,1-1.46-5.46L307.34,207a4,4,0,0,1,6.93,4L275.7,277.77A4,4,0,0,1,272.23,279.77Z"/></svg>